<?xml version="1.0" standalone="no"?>
<!DOCTYPE svg PUBLIC "-//W3C//DTD SVG 20010904//EN"
 "http://www.w3.org/TR/2001/REC-SVG-20010904/DTD/svg10.dtd">
<svg version="1.0" xmlns="http://www.w3.org/2000/svg"
 width="460.000000pt" height="460.000000pt" viewBox="0 0 460.000000 460.000000"
 preserveAspectRatio="xMidYMid meet">
<metadata>
Created by potrace 1.14, written by Peter Selinger 2001-2017
</metadata>
<g transform="translate(0.000000,460.000000) scale(0.100000,-0.100000)"
fill="#000000" stroke="none">
<path d="M1930 4264 c0 -8 5 -12 10 -9 6 3 10 10 10 16 0 5 -4 9 -10 9 -5 0
-10 -7 -10 -16z"/>
<path d="M1956 4258 c-3 -13 -6 -53 -6 -90 0 -61 2 -68 20 -68 11 0 20 -5 20
-12 0 -6 2 -9 5 -6 3 3 1 17 -4 30 -5 14 -11 58 -12 97 -3 72 -12 90 -23 49z"/>
<path d="M1992 4260 c0 -14 2 -19 5 -12 2 6 2 18 0 25 -3 6 -5 1 -5 -13z"/>
<path d="M2011 4264 c0 -11 3 -14 6 -6 3 7 2 16 -1 19 -3 4 -6 -2 -5 -13z"/>
<path d="M2035 4258 c-4 -13 -10 -43 -12 -68 -2 -25 -8 -46 -14 -48 -5 -2 -9
-10 -9 -18 0 -10 12 -14 40 -14 22 0 40 4 40 10 0 5 -6 7 -13 5 -9 -4 -11 13
-9 75 4 78 -7 106 -23 58z"/>
<path d="M2072 4245 c0 -16 2 -22 5 -12 2 9 2 23 0 30 -3 6 -5 -1 -5 -18z"/>
<path d="M1890 4240 c0 -5 -3 -9 -7 -7 -8 2 -13 -6 -13 -24 0 -5 3 -8 8 -5 4
2 6 -13 4 -33 -2 -21 3 -58 12 -82 12 -35 15 -39 16 -18 0 15 7 32 15 39 8 7
14 27 14 44 l-1 31 -9 -30 c-7 -25 -8 -23 -5 16 2 25 -2 53 -9 62 -14 19 -25
22 -25 7z"/>
<path d="M1841 4214 c0 -11 3 -14 6 -6 3 7 2 16 -1 19 -3 4 -6 -2 -5 -13z"/>
<path d="M1992 4190 c0 -17 4 -28 9 -25 11 8 12 55 1 55 -5 0 -9 -14 -10 -30z"/>
<path d="M2072 4185 c0 -16 2 -22 5 -12 2 9 2 23 0 30 -3 6 -5 -1 -5 -18z"/>
<path d="M1852 4150 c0 -19 2 -27 5 -17 2 9 2 25 0 35 -3 9 -5 1 -5 -18z"/>
<path d="M1860 4078 c0 -7 5 -20 10 -28 8 -12 10 -11 10 7 0 12 -4 25 -10 28
-5 3 -10 0 -10 -7z"/>
<path d="M890 3790 c-8 -5 -12 -11 -10 -14 3 -2 14 2 24 10 22 15 10 19 -14 4z"/>
<path d="M978 3793 c7 -3 16 -2 19 1 4 3 -2 6 -13 5 -11 0 -14 -3 -6 -6z"/>
<path d="M1150 3790 c0 -5 10 -10 23 -12 12 -2 -13 -5 -56 -6 -45 -1 -75 3
-72 8 3 5 -8 4 -25 -1 -35 -13 -41 -24 -7 -16 12 4 28 3 35 -2 9 -5 -5 -10
-36 -14 -57 -7 -138 -47 -184 -92 -17 -16 -28 -24 -23 -16 5 10 4 12 -4 7 -6
-4 -9 -12 -6 -17 4 -5 -1 -16 -9 -25 -9 -8 -19 -27 -22 -42 -3 -15 -10 -38
-16 -52 -16 -37 -19 -48 -25 -128 -3 -40 -10 -75 -16 -79 -6 -3 -7 -1 -3 5 4
7 2 12 -3 12 -6 0 -11 -9 -11 -21 0 -12 -4 -17 -11 -14 -6 4 -8 13 -6 19 3 7
-1 13 -8 13 -11 0 -11 -7 2 -31 14 -28 14 -30 1 -18 -13 10 -17 10 -22 0 -3
-7 -4 -3 -2 10 2 12 0 22 -5 22 -10 0 -12 -21 -3 -44 3 -9 10 -13 15 -10 10 6
0 -24 -26 -73 -35 -69 -28 -211 12 -236 7 -4 10 -14 7 -22 -4 -8 -1 -15 6 -15
6 0 8 5 5 10 -3 6 -1 10 4 10 6 0 11 -4 11 -8 0 -5 18 -14 40 -21 41 -12 112
-1 125 19 14 22 25 7 24 -32 -1 -34 -2 -38 -8 -19 -7 25 -31 42 -31 21 0 -6 4
-9 9 -6 5 3 11 -15 14 -40 2 -26 11 -50 18 -55 18 -11 26 -2 11 13 -7 7 -12
18 -12 26 0 9 8 4 21 -11 16 -22 18 -30 9 -48 -7 -12 -8 -19 -2 -15 6 3 12 3
14 -1 6 -14 69 -43 91 -42 19 1 18 2 -5 9 -54 16 -111 60 -78 60 6 0 10 -3 10
-8 0 -4 10 -13 22 -21 27 -17 151 -23 145 -7 -3 6 6 19 19 29 26 19 34 8 10
-13 -8 -6 -12 -17 -10 -25 3 -7 -3 -15 -13 -18 -14 -4 -14 -5 5 -6 16 -1 22 5
22 20 0 11 7 27 15 36 8 8 13 18 10 23 -8 12 44 62 58 56 9 -3 9 -5 0 -5 -8
-1 -7 -10 3 -31 20 -39 26 -38 19 4 -7 33 -6 34 40 50 32 10 53 13 64 6 16
-10 16 -10 -49 -14 -8 -1 -16 -9 -18 -19 -3 -15 1 -18 20 -15 13 2 22 9 20 17
-2 9 3 11 13 7 9 -3 26 0 37 8 19 13 19 14 -8 23 l-27 9 46 29 c25 16 51 41
57 54 l12 25 16 -27 c9 -15 21 -27 27 -27 5 0 3 -5 -5 -10 -13 -9 -13 -10 0
-10 9 0 4 -6 -10 -13 -26 -14 -54 -11 -45 3 3 5 0 12 -6 16 -7 4 -9 3 -6 -3 8
-13 -20 -26 -35 -16 -7 4 -8 1 -3 -7 5 -9 4 -11 -3 -6 -7 4 -12 2 -12 -3 0
-14 6 -14 32 0 15 8 23 8 32 -1 8 -8 6 -9 -8 -4 -12 5 -17 4 -13 -3 3 -5 -19
-25 -50 -43 -30 -19 -62 -40 -69 -48 -12 -11 -14 -11 -14 2 0 23 -17 19 -23
-5 -4 -16 -11 -19 -26 -14 -23 7 -26 2 -11 -25 8 -15 4 -25 -19 -51 -16 -17
-27 -38 -24 -45 3 -8 0 -14 -6 -14 -14 0 -15 37 -1 45 12 7 13 25 2 25 -15 0
-31 -68 -18 -75 8 -3 7 -7 -2 -11 -17 -8 -5 -24 13 -17 14 5 19 -6 16 -35 -1
-7 2 -11 6 -10 4 2 28 -11 53 -29 46 -31 47 -34 41 -96 -1 -5 -6 -5 -11 -2 -6
4 -8 10 -5 15 3 4 -5 11 -18 14 -24 6 -97 71 -97 87 0 6 -4 8 -9 5 -5 -4 -29
9 -53 27 -23 18 -57 41 -75 52 l-32 19 30 18 c17 10 35 15 41 12 7 -4 8 -2 4
5 -6 8 0 10 21 6 l28 -6 -24 14 c-23 14 -24 15 -5 20 17 4 16 5 -3 6 -13 0
-23 -5 -23 -11 -1 -17 -67 -50 -75 -38 -4 6 -11 10 -16 10 -6 0 -7 -5 -4 -10
4 -6 -5 -5 -20 2 -22 10 -24 14 -12 23 22 16 -6 40 -31 26 -16 -10 -16 -10 1
-11 11 0 15 -5 11 -11 -4 -8 -9 -8 -17 0 -17 17 -80 13 -103 -7 -35 -29 -58
-75 -56 -110 2 -21 -1 -31 -8 -27 -6 4 -7 0 -3 -10 3 -10 1 -20 -5 -24 -6 -3
-13 -20 -16 -36 l-6 -30 11 28 c15 39 25 34 33 -18 3 -25 9 -65 12 -90 5 -33
2 -51 -10 -70 -9 -14 -12 -25 -6 -25 5 0 10 5 10 11 0 5 5 7 10 4 6 -3 10 2
11 12 0 11 3 13 6 5 3 -7 0 -19 -7 -26 -7 -9 -7 -16 -1 -20 5 -3 12 0 15 6 4
7 5 4 2 -8 -2 -12 1 -29 6 -38 6 -11 6 -22 -3 -32 -10 -12 -9 -13 5 -8 9 3 16
1 16 -5 0 -6 -4 -11 -10 -11 -5 0 -10 -13 -10 -30 0 -16 -5 -30 -11 -30 -5 0
-7 4 -4 10 3 5 1 18 -5 27 -9 15 -10 14 -4 -6 4 -16 3 -21 -5 -17 -6 4 -11 3
-11 -3 0 -5 9 -13 20 -16 28 -9 25 -28 -2 -20 -19 5 -20 4 -8 -5 12 -9 12 -13
2 -17 -10 -4 -10 -8 -1 -19 16 -19 29 -18 29 4 0 14 -2 15 -10 2 -6 -9 -10
-10 -10 -3 0 23 17 22 38 -2 12 -14 29 -25 38 -25 14 0 14 -2 0 -15 -8 -8 -17
-15 -21 -15 -17 0 -54 -52 -60 -83 -6 -29 -3 -39 13 -53 15 -12 18 -22 12 -33
-6 -13 -3 -16 16 -16 26 0 32 10 12 18 -21 8 38 26 63 20 20 -4 21 -3 9 7 -12
9 -9 10 14 5 26 -5 28 -4 17 9 -13 15 -10 17 14 16 3 0 18 14 33 32 40 49 50
58 61 58 6 0 11 7 11 16 0 8 4 13 9 10 12 -8 20 39 10 56 -6 9 -9 4 -9 -15 0
-16 -4 -26 -10 -22 -5 3 -10 15 -10 26 0 11 -5 17 -10 14 -7 -4 -6 -13 1 -26
5 -11 8 -28 6 -37 -4 -13 -5 -13 -6 4 0 11 -6 25 -11 30 -15 15 6 68 22 58 8
-5 9 -2 4 12 -5 10 -10 36 -13 57 -3 21 -14 44 -23 50 -10 6 -16 17 -13 24 3
7 0 13 -6 13 -6 0 -11 -4 -11 -10 0 -5 -4 -10 -10 -10 -5 0 -7 7 -4 15 4 10 0
15 -11 15 -9 0 -14 4 -11 8 3 5 -6 19 -19 30 -22 19 -24 27 -18 69 3 27 10 53
15 60 5 7 5 14 0 17 -11 7 -21 -15 -23 -47 -2 -42 -17 35 -18 96 -1 53 1 57
22 57 34 0 65 -26 65 -55 0 -14 -4 -25 -9 -25 -5 0 -9 -9 -9 -21 0 -11 4 -17
10 -14 10 6 90 -31 90 -41 0 -4 -13 -4 -28 -1 -29 6 -62 -7 -49 -19 3 -4 13
-1 22 6 11 9 15 9 15 1 0 -7 4 -10 9 -6 13 7 62 -16 55 -26 -3 -5 2 -6 10 -3
21 8 20 13 -6 24 -17 6 -18 9 -6 9 9 1 19 -3 23 -9 3 -5 28 -21 56 -36 36 -20
46 -30 37 -37 -9 -6 -5 -7 11 -3 44 9 146 -69 133 -103 -4 -10 -1 -12 8 -6 10
6 12 4 7 -9 -5 -14 -3 -17 8 -13 9 4 21 -5 32 -23 9 -17 21 -30 25 -30 4 0 8
-4 8 -10 0 -5 -7 -7 -15 -4 -10 4 -15 0 -15 -11 0 -10 5 -13 12 -9 7 5 9 2 6
-8 -5 -11 0 -15 15 -14 15 1 22 -5 22 -18 0 -11 6 -21 13 -24 17 -5 15 33 -3
48 -8 6 -19 9 -25 5 -5 -3 -10 -2 -10 4 0 24 20 18 49 -14 31 -36 39 -51 21
-40 -6 3 -7 -1 -4 -9 7 -19 -12 -21 -50 -6 -28 10 -33 6 -14 -14 15 -15 56 -9
82 13 18 16 18 15 2 -16 -9 -19 -12 -33 -6 -33 5 0 10 6 10 14 0 28 21 27 55
-3 31 -27 33 -32 19 -46 -8 -8 -11 -15 -5 -15 5 0 16 7 24 15 13 13 16 13 27
-1 11 -12 10 -13 -5 -8 -13 5 -16 4 -11 -4 5 -8 1 -10 -10 -5 -13 5 -16 3 -11
-10 5 -14 3 -15 -18 -5 -13 6 -22 15 -19 19 3 5 -2 9 -11 9 -11 0 -15 -5 -12
-14 3 -8 1 -17 -6 -20 -7 -4 -2 -4 9 -2 12 2 28 -1 35 -6 11 -7 9 -8 -5 -4
-13 5 -17 2 -13 -8 4 -11 1 -13 -10 -9 -11 4 -14 2 -9 -5 11 -19 -8 -14 -31 7
-20 19 -20 19 -20 -5 0 -13 3 -27 8 -30 5 -3 6 2 3 10 -3 9 -2 16 4 16 5 0 12
-7 15 -14 6 -16 -26 -32 -42 -22 -15 10 -41 -5 -41 -23 1 -14 3 -13 15 3 8 11
17 17 20 15 2 -3 -16 -25 -41 -50 -29 -27 -48 -39 -51 -31 -3 6 -9 12 -14 12
-6 0 -7 -4 -4 -10 8 -13 -1 -13 -26 0 -13 7 -19 7 -19 0 0 -9 17 -14 48 -13
18 1 15 -10 -7 -24 -15 -10 -21 -10 -24 0 -3 7 -6 3 -6 -9 -1 -11 -13 -31 -28
-45 -16 -13 -25 -20 -21 -15 4 5 3 15 -3 23 -14 16 -39 0 -39 -26 1 -11 5 -8
15 9 8 14 14 21 15 16 0 -14 -51 -86 -61 -86 -5 0 -35 -24 -66 -54 -32 -30
-60 -52 -63 -49 -3 2 4 11 14 19 17 12 17 14 4 14 -9 0 -20 -10 -23 -22 -8
-24 -93 -108 -110 -108 -7 0 -7 3 0 8 6 4 10 16 11 28 1 31 -40 25 -43 -7 l-2
-24 7 25 c5 17 10 21 15 13 12 -19 -8 -48 -48 -72 -36 -21 -64 -30 -35 -11 9
6 10 10 3 10 -6 0 -14 -4 -17 -9 -8 -12 19 -33 30 -23 5 4 0 -3 -10 -15 -23
-28 -27 -29 -19 -6 3 10 3 15 -1 11 -4 -3 -9 -14 -10 -25 -2 -10 -6 -16 -9
-15 -4 2 -16 6 -27 9 -11 3 -20 9 -20 14 0 5 8 5 18 2 12 -5 8 4 -13 29 -33
40 -56 51 -31 16 26 -36 18 -42 -10 -9 -35 42 -95 44 -136 4 -24 -23 -28 -34
-28 -82 0 -60 38 -184 64 -210 9 -8 31 -14 53 -13 21 0 60 1 86 1 30 0 47 4
43 10 -4 5 3 15 14 21 20 11 30 -3 10 -15 -13 -8 -13 -45 -1 -45 6 0 10 8 10
18 3 64 14 92 37 92 5 0 3 -5 -4 -12 -15 -15 -16 -45 -1 -54 8 -4 9 1 5 17 -3
13 -3 18 0 11 10 -22 24 -2 14 22 -5 13 -6 27 -2 32 4 4 -2 4 -12 0 -15 -5
-17 -4 -7 8 9 10 9 15 1 18 -7 2 -3 12 10 23 l21 19 -6 -26 c-4 -14 -2 -29 3
-32 13 -8 25 26 16 47 -3 9 3 24 13 34 16 16 21 17 32 6 14 -16 77 -17 86 -2
4 6 4 13 0 17 -4 4 -10 1 -12 -5 -6 -18 -52 -16 -59 1 -8 21 53 75 78 71 11
-2 33 5 48 17 15 11 33 17 39 14 6 -4 9 5 8 26 -3 28 2 37 30 55 18 12 35 18
38 12 9 -14 22 -11 29 7 5 12 2 15 -11 10 -21 -8 93 110 121 126 13 7 16 7 12
-1 -4 -6 -2 -11 3 -11 6 0 11 -10 11 -22 1 -23 1 -23 16 -3 14 19 16 19 28 3
16 -22 26 -23 26 -3 0 8 -7 15 -15 15 -8 0 -15 9 -15 20 0 14 7 20 21 20 11 0
18 4 15 8 -4 7 -16 8 -58 3 -3 -1 -9 -9 -11 -18 -4 -17 -5 -17 -6 -1 -1 21 24
35 62 33 15 0 27 3 27 7 0 4 6 8 13 8 7 0 18 9 25 20 9 15 19 19 37 14 15 -4
25 -2 25 5 0 6 -5 11 -11 11 -5 0 -7 5 -3 11 4 8 9 7 15 -2 8 -13 10 -12 13
12 1 11 35 39 47 39 4 0 21 -12 38 -26 17 -14 31 -22 31 -18 0 5 -12 18 -27
30 -24 19 -26 24 -13 38 30 38 72 50 162 47 83 -2 86 -2 81 19 -4 15 -11 19
-27 14 l-21 -6 22 16 c12 9 28 14 36 11 7 -3 20 1 27 10 8 10 9 15 1 15 -6 0
-11 -4 -11 -10 0 -5 -5 -10 -12 -10 -6 0 -3 9 7 20 14 15 21 17 26 8 6 -9 11
-9 23 1 9 7 13 18 10 23 -4 6 -10 5 -15 -3 -6 -10 -9 -10 -9 -2 0 6 4 14 9 17
12 8 34 -21 26 -34 -4 -7 1 -9 17 -5 13 3 35 2 49 -3 43 -17 123 28 163 91 11
18 26 41 33 52 7 11 16 28 19 38 9 24 27 22 19 -3 -4 -11 -2 -20 4 -20 6 0 11
-7 11 -15 0 -8 5 -15 10 -15 6 0 10 4 10 9 0 6 -4 13 -10 16 -5 3 -10 17 -10
30 0 13 -5 25 -11 27 -8 3 -7 13 5 33 l16 30 -6 -27 c-4 -19 -2 -28 6 -28 7 0
10 -6 7 -13 -3 -8 -2 -20 3 -26 5 -9 8 -4 8 13 0 15 -4 28 -7 31 -4 2 -6 25
-5 52 6 112 24 157 59 147 27 -9 33 -16 17 -21 -10 -4 -8 -9 5 -19 17 -12 16
-13 -9 -14 -16 0 -28 -5 -28 -11 0 -5 -4 -7 -10 -4 -7 4 -7 -2 -1 -18 6 -14 7
-28 4 -31 -4 -3 2 -6 11 -6 11 0 22 12 29 30 12 33 24 38 33 15 4 -9 19 -15
35 -15 16 0 29 -4 29 -10 0 -5 11 -10 25 -10 18 0 25 5 25 20 0 11 5 20 10 20
6 0 10 12 9 28 l-1 27 -7 -25 c-4 -14 -15 -26 -26 -27 -16 -1 -17 -1 -2 3 16
5 23 32 18 79 -2 20 -2 20 15 0 16 -20 16 -20 9 0 -5 15 -3 17 6 8 14 -14 39
-6 39 13 0 8 5 14 10 14 6 0 10 5 10 10 0 20 -17 10 -30 -17 -8 -17 -14 -23
-17 -15 -6 17 27 54 43 48 15 -6 37 18 26 29 -4 5 -1 5 6 1 16 -9 72 -17 72
-10 0 3 -7 18 -15 34 -14 28 -14 30 26 72 39 40 36 27 -3 -16 -10 -11 -18 -24
-18 -29 0 -5 16 8 35 29 21 23 33 46 31 57 -2 9 0 15 5 11 5 -3 9 4 9 15 0 12
4 21 9 21 5 0 12 14 16 30 4 17 11 30 16 30 5 0 9 8 9 17 0 15 2 14 15 -3 18
-24 19 -40 2 -25 -11 8 -16 5 -25 -15 -15 -31 -15 -34 -2 -34 6 0 10 9 10 20
0 21 20 29 20 8 0 -8 5 -6 11 4 7 12 6 24 -3 38 -11 19 -10 24 10 40 12 10 22
22 22 26 0 4 -12 -3 -26 -17 -25 -23 -26 -23 -15 -2 6 12 16 25 21 28 6 3 10
16 11 28 0 21 1 21 9 2 8 -20 8 -20 16 -1 5 13 3 21 -4 24 -23 7 -11 23 33 43
37 16 45 25 51 54 6 34 17 44 28 26 4 -5 1 -11 -4 -13 -7 -2 -6 -9 2 -21 11
-15 13 -11 14 30 1 27 -1 42 -3 36 -3 -7 -9 -13 -14 -13 -6 0 -7 5 -4 10 3 6
1 10 -4 10 -6 0 -11 -4 -11 -9 0 -6 -12 -6 -31 -1 -16 5 -36 8 -42 6 -7 -1 -9
-1 -4 1 4 3 4 9 1 15 -4 6 -7 20 -8 31 -1 11 -7 22 -15 25 -10 3 -12 -3 -6
-26 3 -18 2 -33 -4 -37 -7 -3 -11 2 -11 14 0 11 -9 26 -21 34 -13 9 -16 17
-10 22 14 8 14 42 1 50 -5 3 -9 -2 -7 -12 1 -10 -2 -18 -8 -18 -10 0 -11 7 -4
35 2 8 0 15 -4 15 -12 0 -37 54 -31 69 3 8 0 17 -7 22 -8 5 -10 3 -4 -6 4 -7
2 -16 -6 -21 -12 -7 -12 -11 -1 -17 13 -9 42 -57 42 -70 0 -3 -14 12 -30 35
-17 23 -28 48 -24 56 3 8 0 18 -7 23 -7 4 -10 3 -5 -4 3 -6 2 -13 -4 -17 -5
-3 -10 -1 -10 5 0 6 -5 8 -12 4 -8 -5 -7 0 2 11 13 17 13 18 -1 13 -21 -8 -39
10 -32 29 4 9 0 13 -8 12 -16 -4 -74 47 -74 64 0 7 -4 12 -10 12 -5 0 -19 6
-30 12 -17 10 -17 12 -3 13 9 0 18 -4 20 -9 2 -5 12 -3 23 6 14 11 15 14 4 10
-22 -7 -102 11 -111 26 -4 7 -11 12 -17 12 -5 0 -29 16 -52 35 -24 19 -47 34
-51 33 -9 -3 -4 25 7 34 4 4 5 2 0 -6 -5 -9 -4 -12 3 -7 18 11 14 29 -5 22 -9
-4 -20 -1 -25 6 -5 8 -7 1 -4 -17 5 -27 4 -28 -8 -12 -7 9 -18 17 -25 17 -10
0 -15 14 -12 33 1 4 -8 3 -19 -3 -13 -7 -20 -7 -20 -1 0 6 10 16 22 22 14 8
18 14 10 17 -6 2 -10 7 -7 12 3 4 -5 6 -17 3 -19 -4 -20 -3 -8 6 18 13 1 14
-19 2 -12 -8 -9 -11 12 -16 15 -4 24 -11 21 -17 -3 -5 -13 -7 -21 -4 -8 3 -12
2 -9 -3 4 -5 -10 -4 -30 2 -20 6 -31 13 -25 15 6 2 8 9 4 15 -4 7 0 8 11 4 10
-4 15 -3 11 4 -4 5 -16 7 -27 3 -14 -4 -18 -2 -14 5 10 16 -3 14 -20 -3 -12
-13 -19 -12 -54 1 -41 17 -38 34 5 32 16 -1 16 -2 -5 -9 -21 -7 -21 -8 -5 -9
11 0 27 4 35 9 8 5 13 10 10 10 -3 0 -20 4 -38 9 -20 6 -30 6 -27 0 13 -20
-25 -8 -39 13 -20 28 -5 48 20 27 16 -13 16 -12 3 9 -16 26 -23 27 -41 9 -11
-11 -16 -12 -25 -1 -17 18 -49 6 -62 -22 -7 -15 -16 -22 -23 -18 -7 4 -8 3 -4
-5 4 -6 12 -8 18 -5 6 4 9 1 6 -7 -3 -8 1 -26 8 -40 12 -24 11 -27 -14 -38
-15 -7 -24 -9 -20 -5 8 8 -29 44 -45 44 -6 0 -2 -7 9 -16 18 -15 18 -15 -10
-9 -26 5 -27 4 -13 -9 9 -9 23 -13 31 -10 9 3 16 2 16 -3 0 -12 -41 -37 -70
-43 -14 -3 -25 -10 -25 -15 0 -19 -17 -36 -31 -31 -7 3 -18 -4 -24 -14 -6 -11
-14 -19 -18 -19 -19 3 -26 -2 -13 -10 10 -6 20 -3 32 12 9 12 20 20 22 17 3
-3 -8 -21 -24 -40 -16 -19 -26 -26 -22 -16 4 13 3 17 -5 12 -6 -3 -13 -2 -17
4 -4 6 -11 7 -17 4 -8 -5 -9 -1 -4 12 5 14 4 16 -4 7 -13 -12 0 -46 16 -43 5
1 10 -4 13 -11 2 -8 -1 -9 -10 -3 -11 6 -12 5 -2 -7 10 -12 7 -22 -16 -50 -25
-31 -93 -162 -120 -231 -8 -20 -17 -28 -33 -27 l-23 2 23 4 c12 2 22 9 22 14
0 5 -11 7 -25 3 -16 -4 -25 -2 -25 6 0 6 -4 9 -9 6 -12 -8 -21 -46 -11 -46 5
0 11 8 13 18 4 16 5 16 6 -1 1 -17 -44 -46 -55 -35 -6 6 13 43 33 65 7 8 10
20 6 28 -3 9 -1 21 5 28 5 6 10 54 11 106 1 52 4 98 7 103 3 4 1 8 -4 8 -14 0
-22 68 -12 93 5 12 9 16 9 8 1 -11 5 -10 16 5 17 22 19 44 5 44 -5 0 -10 -10
-11 -22 0 -22 -1 -22 -10 2 -6 13 -17 33 -26 42 -9 10 -13 21 -9 26 4 4 16 -3
26 -15 l18 -23 -2 25 c0 15 -6 23 -13 21 -6 -3 -14 0 -17 7 -3 9 -8 8 -15 -3
-14 -20 -14 -26 3 -42 19 -20 29 -55 16 -63 -5 -3 -10 1 -10 9 0 20 -53 110
-97 163 -19 24 -31 47 -28 53 3 6 -1 7 -9 4 -9 -4 -18 1 -22 10 -3 9 -12 16
-19 16 -8 0 -17 4 -20 10 -3 5 0 7 8 4 8 -3 17 -2 20 3 3 4 -10 9 -27 10 -18
2 -49 10 -69 18 -20 8 -56 15 -79 15 -26 0 -38 3 -30 9 7 4 34 4 60 0 26 -4
49 -5 51 -3 2 2 -1 4 -8 4 -8 0 -11 6 -7 17 4 10 4 14 1 11 -4 -4 -18 -3 -31
2 -14 6 -24 6 -24 0z m65 -88 c65 -22 172 -128 211 -208 36 -74 37 -131 3
-204 -30 -64 -111 -156 -128 -146 -7 4 -10 2 -9 -5 7 -31 -171 -87 -235 -73
l-28 6 26 25 c28 29 32 43 11 43 -18 0 -61 -57 -83 -111 -9 -24 -17 -70 -18
-102 0 -52 -2 -58 -23 -64 -12 -3 -29 1 -38 8 -35 29 5 189 66 266 23 30 25
43 7 43 -7 0 -26 -20 -41 -45 -16 -25 -33 -45 -38 -45 -20 0 -76 29 -101 52
-33 31 -34 57 -3 91 15 17 21 29 14 33 -6 4 -24 -7 -40 -25 -16 -17 -26 -31
-23 -31 3 0 -2 -12 -12 -26 -16 -25 -17 -25 -30 -8 -7 10 -13 13 -13 8 0 -6 5
-15 11 -21 12 -12 -6 -93 -21 -93 -27 0 -40 15 -40 44 1 37 61 152 78 148 7
-1 11 4 10 10 -2 7 2 12 9 11 7 -2 10 3 7 11 -3 7 2 16 10 19 20 8 21 27 2 27
-9 0 -13 7 -12 18 2 9 7 41 11 70 4 28 11 52 16 52 4 0 6 6 3 14 -12 30 80
166 112 166 8 0 14 5 14 11 0 6 7 8 16 5 8 -3 13 -2 9 3 -5 8 49 33 100 45 35
8 138 -3 190 -22z m814 -98 c11 -14 23 -33 26 -43 3 -10 24 -22 53 -30 91 -24
277 -128 427 -240 83 -62 275 -265 275 -292 0 -5 11 -26 24 -47 14 -20 28 -50
32 -65 5 -21 11 -26 23 -21 64 27 71 28 82 17 15 -15 -40 -73 -69 -73 -13 0
-22 -9 -26 -26 -12 -47 -79 -178 -120 -234 -81 -111 -220 -240 -260 -240 -17
0 -19 -6 -16 -61 1 -21 -4 -40 -10 -44 -16 -10 -48 23 -52 53 -2 19 -11 29
-33 36 -16 6 -31 11 -33 12 -6 3 59 198 68 208 5 5 12 -2 16 -18 3 -14 10 -26
15 -26 12 0 11 37 -1 60 -8 14 1 31 41 84 27 36 54 66 60 66 6 0 18 -7 27 -16
23 -23 29 1 7 26 -17 19 -16 22 30 76 48 55 49 56 92 50 46 -6 60 8 18 18 -32
8 -32 19 6 66 62 77 45 169 -28 157 -18 -3 -46 -15 -61 -26 l-28 -20 -95 92
c-100 98 -240 210 -278 222 -16 5 -20 11 -15 23 18 42 16 80 -6 102 -40 40
-92 16 -211 -97 l-56 -54 -34 32 c-18 17 -35 26 -37 20 -2 -6 5 -19 17 -29 30
-25 29 -43 -3 -84 -26 -32 -33 -35 -54 -27 -29 11 -56 4 -47 -11 3 -5 15 -10
26 -10 27 0 24 -21 -8 -63 -16 -20 -39 -54 -52 -76 -21 -34 -35 -43 -100 -67
-42 -15 -87 -34 -101 -41 -32 -17 -55 -16 -69 1 -17 20 13 46 54 46 30 0 34 4
54 53 18 44 65 136 128 251 27 49 141 154 206 191 53 29 67 41 61 54 -4 9 -9
33 -12 54 -5 45 16 51 47 11z m189 -199 c2 -20 -4 -38 -18 -52 l-20 -22 43
-19 c56 -26 182 -126 291 -234 49 -48 94 -88 99 -88 5 0 21 8 35 18 62 43 110
30 99 -27 -7 -35 -41 -83 -116 -166 -55 -61 -67 -75 -151 -184 -36 -46 -74
-95 -85 -108 l-21 -25 -87 46 c-230 122 -445 303 -510 432 -16 30 -15 33 21
94 38 65 165 213 243 285 77 71 101 85 139 82 31 -2 35 -5 38 -32z m-1466
-315 c-9 -15 -8 -22 3 -34 8 -8 15 -20 15 -26 0 -6 5 -8 11 -4 7 4 10 2 8 -5
-3 -7 -8 -12 -12 -12 -4 1 -14 1 -22 1 -28 0 -38 37 -24 93 11 47 13 50 22 29
8 -17 7 -29 -1 -42z m291 -247 c-7 -2 -19 -2 -25 0 -7 3 -2 5 12 5 14 0 19 -2
13 -5z m242 -13 c3 -5 1 -10 -4 -10 -6 0 -11 5 -11 10 0 6 2 10 4 10 3 0 8 -4
11 -10z m173 -2 c22 -22 13 -35 -60 -87 -111 -77 -110 -76 -106 -107 4 -35 59
-69 127 -79 25 -4 65 -15 89 -26 50 -21 122 -76 122 -91 0 -6 -9 -3 -20 7 -28
25 -38 10 -12 -18 12 -13 22 -27 22 -31 0 -5 -9 3 -21 18 -28 35 -43 33 -24
-4 9 -16 13 -30 10 -30 -3 0 -25 16 -50 35 -30 22 -82 46 -148 67 -114 35
-195 81 -204 116 -3 12 0 35 6 51 25 60 184 188 237 190 11 1 25 -4 32 -11z
m48 -53 c-11 -8 -21 -22 -22 -31 -2 -10 -10 -24 -19 -33 -13 -13 -17 -14 -24
-2 -6 9 -14 11 -26 4 -15 -9 -14 -11 11 -17 25 -7 33 -3 61 31 18 21 33 33 33
27 0 -6 -18 -30 -39 -53 -22 -24 -50 -58 -63 -77 -24 -36 -39 -37 -86 -7 l-23
14 21 29 c12 17 26 30 31 30 5 0 0 -9 -11 -20 -24 -24 -26 -46 -5 -54 8 -3 15
-1 15 3 0 5 -6 11 -12 14 -16 5 8 37 27 37 17 0 28 30 12 30 -15 1 40 31 62
35 9 1 15 5 13 10 -2 4 9 16 25 26 33 22 46 25 19 4z m-276 -30 c0 -12 -19
-12 -23 0 -4 9 -1 12 9 8 7 -3 14 -7 14 -8z m-335 -94 c132 -74 129 -71 114
-126 l-10 -36 -32 24 c-76 57 -129 71 -147 38 -22 -42 -3 -184 44 -320 14 -41
26 -75 26 -77 0 -1 -11 -9 -25 -18 -24 -16 -25 -15 -42 16 -9 18 -18 35 -18
38 -1 3 -6 16 -12 30 -18 42 -63 276 -63 324 0 53 12 88 40 116 27 27 66 25
125 -9z m1808 -265 c3 -6 -3 -12 -13 -12 -10 0 -16 6 -13 13 4 9 -1 11 -13 7
-15 -5 -16 -4 -5 4 16 12 37 6 44 -12z m-945 -80 c50 -32 67 -53 151 -178 137
-205 172 -208 256 -23 37 81 56 93 91 54 19 -21 18 -22 -36 -127 -61 -118 -97
-152 -159 -152 -69 0 -123 51 -232 221 -44 70 -73 102 -116 133 -31 22 -51 42
-45 44 6 2 20 -1 31 -7 27 -15 34 -14 28 3 -3 8 -1 17 6 20 7 2 2 8 -10 11
-13 4 -23 11 -23 16 0 15 19 10 58 -15z m760 -57 c-3 -20 -5 -19 -9 9 -3 20
-2 29 4 23 5 -5 7 -19 5 -32z m-1560 -77 c34 -44 -44 -122 -121 -122 -42 0
-70 28 -65 67 4 34 32 38 36 6 4 -30 34 -30 74 -2 25 18 29 27 24 51 -5 27 -4
29 17 23 12 -4 28 -14 35 -23z m1557 8 c-3 -5 -10 -10 -16 -10 -5 0 -9 5 -9
10 0 6 7 10 16 10 8 0 12 -4 9 -10z m-392 -108 c-10 -18 -23 -34 -29 -36 -7
-3 0 13 14 35 30 45 41 46 15 1z m-1152 1 c-12 -20 -14 -14 -5 12 4 9 9 14 11
11 3 -2 0 -13 -6 -23z m1107 -67 c-7 -8 -15 -12 -17 -11 -5 6 10 25 20 25 5 0
4 -6 -3 -14z m-241 -222 c-3 -3 -12 -4 -19 -1 -8 3 -5 6 6 6 11 1 17 -2 13 -5z
m-429 -127 c10 -12 -5 -30 -81 -98 -51 -46 -115 -102 -142 -125 -28 -23 -79
-65 -115 -95 -36 -30 -77 -62 -91 -71 -15 -9 -53 -40 -85 -68 l-59 -51 -14 30
c-13 28 -13 32 7 48 59 49 328 280 426 365 113 98 123 102 154 65z m-294 -332
c-4 -8 -9 -15 -13 -15 -4 0 -17 -9 -30 -21 -12 -12 -25 -18 -28 -15 -4 3 -4 7
-2 9 2 2 19 15 37 30 39 31 44 33 36 12z m-240 -29 c-10 -8 -21 -12 -23 -10
-3 2 4 11 15 18 10 8 21 12 23 10 3 -2 -4 -11 -15 -18z m-97 -98 c48 -53 56
-108 21 -145 -22 -24 -48 -31 -48 -13 0 6 7 10 16 10 14 0 16 8 10 47 -3 26
-15 56 -26 68 -23 24 -26 55 -7 55 8 0 23 -10 34 -22z"/>
<path d="M700 3235 c-7 -9 -11 -17 -9 -20 3 -2 10 5 17 15 14 24 10 26 -8 5z"/>
<path d="M2727 2677 c-121 -122 -237 -291 -214 -313 6 -7 60 20 88 44 29 24
149 169 180 217 22 34 69 130 69 141 0 2 -7 4 -15 4 -9 0 -57 -42 -108 -93z"/>
<path d="M2040 3218 c-98 -34 -149 -160 -106 -263 45 -106 156 -194 292 -231
62 -16 68 -16 119 0 41 13 63 27 90 60 31 38 35 50 35 100 0 82 -37 155 -119
235 -36 35 -86 73 -110 84 -53 23 -152 31 -201 15z m198 -37 c52 -27 163 -138
186 -186 10 -20 20 -61 23 -91 5 -47 2 -59 -21 -94 -34 -52 -76 -73 -145 -72
-72 1 -226 75 -269 130 -57 72 -82 154 -67 220 8 37 69 99 109 112 47 14 137
5 184 -19z"/>
<path d="M2110 3121 c0 -26 17 -36 35 -21 18 15 8 40 -16 40 -12 0 -19 -7 -19
-19z"/>
<path d="M2126 3042 c-17 -28 42 -102 83 -102 20 0 11 15 -19 32 -17 10 -37
32 -44 49 -7 17 -16 27 -20 21z"/>
<path d="M2310 2955 c0 -20 4 -26 18 -23 9 2 17 12 17 23 0 11 -8 21 -17 23
-14 3 -18 -3 -18 -23z"/>
<path d="M741 3104 c0 -11 3 -14 6 -6 3 7 2 16 -1 19 -3 4 -6 -2 -5 -13z"/>
<path d="M733 3056 c1 -11 9 -21 17 -23 10 -3 11 -2 4 4 -6 4 -14 15 -17 23
-5 11 -6 9 -4 -4z"/>
<path d="M1414 2682 c2 -4 -9 -14 -25 -21 -16 -7 -26 -17 -23 -23 4 -5 14 -2
24 7 11 10 24 14 31 9 8 -4 10 -3 5 4 -4 7 -2 12 4 12 6 0 8 5 5 10 -3 6 -11
10 -16 10 -6 0 -8 -4 -5 -8z"/>
<path d="M1390 2625 c-7 -9 -11 -18 -8 -20 3 -3 11 1 18 10 7 9 11 18 8 20 -3
3 -11 -1 -18 -10z"/>
<path d="M945 3780 c27 -12 43 -12 25 0 -8 5 -22 9 -30 9 -10 0 -8 -3 5 -9z"/>
<path d="M1238 3773 c6 -2 18 -2 25 0 6 3 1 5 -13 5 -14 0 -19 -2 -12 -5z"/>
<path d="M907 3750 c3 -11 9 -17 14 -15 10 7 1 35 -11 35 -5 0 -6 -9 -3 -20z"/>
<path d="M945 3760 c-4 -6 3 -10 14 -10 25 0 27 6 6 13 -8 4 -17 2 -20 -3z"/>
<path d="M880 3735 c0 -8 4 -15 10 -15 5 0 7 7 4 15 -4 8 -8 15 -10 15 -2 0
-4 -7 -4 -15z"/>
<path d="M1248 3743 c6 -2 18 -2 25 0 6 3 1 5 -13 5 -14 0 -19 -2 -12 -5z"/>
<path d="M1344 3712 c4 -7 1 -12 -9 -12 -9 0 -13 -4 -10 -10 3 -5 10 -10 15
-10 13 0 20 29 8 36 -7 4 -8 3 -4 -4z"/>
<path d="M1940 3710 c-8 -5 -12 -12 -9 -15 4 -3 12 1 19 10 14 17 11 19 -10 5z"/>
<path d="M2020 3700 c27 -21 40 -25 40 -12 0 4 -15 13 -32 20 l-33 12 25 -20z"/>
<path d="M815 3690 c-10 -11 -15 -23 -12 -27 4 -3 7 -2 7 4 0 6 11 14 25 17
14 4 23 11 20 16 -9 15 -20 12 -40 -10z"/>
<path d="M1970 3698 c0 -9 -8 -18 -17 -20 -10 -2 -13 -6 -8 -10 6 -3 19 0 30
8 15 11 16 17 7 26 -9 9 -12 8 -12 -4z"/>
<path d="M2000 3681 c0 -5 7 -12 16 -15 14 -5 15 -4 4 9 -14 17 -20 19 -20 6z"/>
<path d="M1930 3639 c0 -5 5 -7 10 -4 6 3 10 8 10 11 0 2 -4 4 -10 4 -5 0 -10
-5 -10 -11z"/>
<path d="M760 3620 c-6 -11 -16 -17 -25 -14 -12 5 -12 0 -5 -26 5 -18 12 -35
16 -39 4 -3 4 2 1 12 -4 11 1 26 13 39 11 12 20 28 20 35 0 19 -8 16 -20 -7z"/>
<path d="M1384 3624 c9 -8 21 -25 27 -36 10 -19 12 -19 21 -5 5 11 5 24 -2 37
-12 23 -22 27 -14 5 4 -8 2 -15 -4 -15 -5 0 -12 7 -16 15 -3 8 -10 15 -16 15
-6 0 -4 -7 4 -16z"/>
<path d="M3700 3610 c0 -5 5 -10 10 -10 6 0 10 5 10 10 0 6 -4 10 -10 10 -5 0
-10 -4 -10 -10z"/>
<path d="M3607 3513 c6 -75 8 -82 24 -66 11 11 19 123 8 123 -4 0 -14 3 -22 6
-12 4 -14 -6 -10 -63z"/>
<path d="M3672 3565 c-17 -20 -27 -75 -14 -75 6 0 13 12 15 28 2 15 5 3 6 -26
1 -38 5 -52 14 -49 8 2 12 25 12 67 0 64 -10 81 -33 55z"/>
<path d="M1927 3557 c-3 -9 -2 -19 4 -23 15 -9 18 -2 9 20 -6 17 -7 18 -13 3z"/>
<path d="M2145 3560 c4 -6 11 -8 16 -5 14 9 11 15 -7 15 -8 0 -12 -5 -9 -10z"/>
<path d="M3525 3539 c-4 -11 -4 -42 0 -70 6 -40 11 -49 27 -49 17 0 19 5 12
48 -7 49 -20 92 -28 92 -3 0 -8 -9 -11 -21z"/>
<path d="M3560 3550 c0 -5 5 -10 10 -10 6 0 10 5 10 10 0 6 -4 10 -10 10 -5 0
-10 -4 -10 -10z"/>
<path d="M3723 3520 c0 -25 2 -35 4 -22 2 12 2 32 0 45 -2 12 -4 2 -4 -23z"/>
<path d="M723 3528 c1 -15 6 -23 11 -18 4 4 4 16 -2 26 -9 16 -10 14 -9 -8z"/>
<path d="M1840 3501 c0 -5 5 -13 10 -16 6 -3 10 -2 10 4 0 5 -4 13 -10 16 -5
3 -10 2 -10 -4z"/>
<path d="M3586 3488 c-3 -13 -1 -27 4 -32 7 -7 10 1 10 22 0 37 -5 41 -14 10z"/>
<path d="M1766 3471 c-4 -5 3 -7 14 -4 23 6 26 13 6 13 -8 0 -17 -4 -20 -9z"/>
<path d="M2425 3469 c4 -5 1 -17 -6 -25 -6 -8 -9 -17 -5 -21 6 -6 35 25 36 38
0 4 -7 10 -16 13 -9 3 -12 2 -9 -5z"/>
<path d="M690 3420 c0 -11 5 -20 10 -20 6 0 10 9 10 20 0 11 -4 20 -10 20 -5
0 -10 -9 -10 -20z"/>
<path d="M3655 3430 c-3 -5 -1 -10 4 -10 6 0 11 5 11 10 0 6 -2 10 -4 10 -3 0
-8 -4 -11 -10z"/>
<path d="M2476 3415 c-4 -11 -13 -14 -28 -10 -21 5 -21 5 -4 -6 14 -9 21 -8
34 5 9 8 13 18 10 21 -3 3 -8 -1 -12 -10z"/>
<path d="M3695 3420 c-3 -5 1 -10 9 -10 9 0 16 5 16 10 0 6 -4 10 -9 10 -6 0
-13 -4 -16 -10z"/>
<path d="M2486 3391 c-11 -12 -14 -21 -7 -26 6 -3 11 -3 11 0 0 4 17 -4 38
-16 22 -14 32 -17 25 -8 -9 11 -9 19 -2 26 7 7 4 14 -7 24 -10 8 -15 9 -11 3
4 -7 0 -15 -9 -18 -22 -9 -23 -8 -17 14 7 25 1 25 -21 1z m59 -21 c-3 -5 -12
-10 -18 -10 -7 0 -6 4 3 10 19 12 23 12 15 0z"/>
<path d="M1685 3323 c7 -25 -13 -42 -26 -22 -5 8 -9 9 -9 3 0 -6 6 -16 13 -22
19 -16 42 22 27 46 -9 15 -10 14 -5 -5z"/>
<path d="M415 3300 c4 -14 10 -41 15 -60 l8 -35 1 40 c0 23 -7 49 -16 60 -15
19 -15 19 -8 -5z"/>
<path d="M490 3305 c0 -8 2 -15 4 -15 2 0 6 7 10 15 3 8 1 15 -4 15 -6 0 -10
-7 -10 -15z"/>
<path d="M570 3309 c0 -5 -5 -7 -12 -3 -8 5 -9 0 -4 -17 5 -13 8 -31 9 -39 1
-9 9 -16 19 -16 15 0 16 2 3 16 -18 20 -19 42 -3 58 9 9 9 12 0 12 -7 0 -12
-5 -12 -11z"/>
<path d="M610 3309 c0 -5 5 -7 10 -4 6 3 10 8 10 11 0 2 -4 4 -10 4 -5 0 -10
-5 -10 -11z"/>
<path d="M1543 3280 c6 -22 15 -40 20 -40 5 0 7 10 3 23 -3 12 -6 30 -6 40 0
9 -6 17 -14 17 -11 0 -11 -8 -3 -40z"/>
<path d="M370 3289 c0 -5 5 -7 10 -4 6 3 10 8 10 11 0 2 -4 4 -10 4 -5 0 -10
-5 -10 -11z"/>
<path d="M1605 3290 c3 -5 11 -10 16 -10 6 0 7 5 4 10 -3 6 -11 10 -16 10 -6
0 -7 -4 -4 -10z"/>
<path d="M2627 3289 c7 -7 15 -10 18 -7 3 3 -2 9 -12 12 -14 6 -15 5 -6 -5z"/>
<path d="M457 3284 c-4 -4 -7 -34 -7 -66 0 -86 -19 -78 -36 15 -3 21 -11 36
-18 34 -17 -5 -19 -45 -6 -93 11 -37 15 -42 31 -34 28 15 57 12 63 -7 2 -10 3
18 1 61 -4 76 -13 104 -28 90z"/>
<path d="M517 3284 c-4 -4 -7 -38 -7 -76 0 -54 3 -68 15 -68 10 0 16 12 17 38
4 78 -7 124 -25 106z"/>
<path d="M2685 3280 c3 -5 8 -10 11 -10 2 0 4 5 4 10 0 6 -5 10 -11 10 -5 0
-7 -4 -4 -10z"/>
<path d="M1600 3268 c0 -4 9 -22 21 -40 16 -25 19 -27 14 -9 -5 17 -4 22 5 16
8 -5 11 -4 6 3 -3 5 0 12 6 15 7 2 10 8 6 12 -4 4 -15 2 -24 -5 -13 -12 -17
-11 -25 1 -5 8 -9 11 -9 7z"/>
<path d="M610 3255 c0 -18 19 -40 26 -32 4 4 0 15 -9 24 -9 10 -17 13 -17 8z"/>
<path d="M2700 3243 c-8 -13 -13 -14 -16 -5 -3 6 -10 12 -16 12 -7 0 -7 -5 1
-13 6 -8 7 -18 3 -22 -4 -5 -1 -5 6 -1 7 4 19 2 27 -4 11 -9 15 -9 15 -1 0 6
-5 11 -11 11 -8 0 -7 5 1 15 7 9 10 18 7 21 -3 3 -10 -3 -17 -13z"/>
<path d="M360 3202 l5 -47 3 39 c2 21 0 42 -5 47 -4 4 -6 -13 -3 -39z"/>
<path d="M576 3208 c-13 -41 -15 -69 -6 -90 9 -19 9 -18 4 11 -3 18 -2 31 2
28 5 -3 9 10 9 29 0 36 -3 42 -9 22z"/>
<path d="M600 3191 c0 -25 6 -27 13 -6 4 8 2 17 -3 20 -6 4 -10 -3 -10 -14z"/>
<path d="M2705 3180 c3 -5 8 -10 11 -10 2 0 4 5 4 10 0 6 -5 10 -11 10 -5 0
-7 -4 -4 -10z"/>
<path d="M1521 3149 c1 -17 3 -19 6 -6 5 20 23 23 23 3 0 -8 3 -21 6 -29 3 -9
-4 -25 -15 -36 -12 -12 -17 -21 -12 -21 6 0 13 5 17 12 5 8 10 6 15 -8 6 -15
8 -12 8 13 1 17 6 35 11 38 14 9 12 45 -2 45 -7 0 -23 3 -35 6 -19 5 -23 3
-22 -17z m59 -8 c0 -6 -4 -13 -10 -16 -5 -3 -10 1 -10 9 0 9 5 16 10 16 6 0
10 -4 10 -9z"/>
<path d="M500 3110 c0 -5 5 -10 10 -10 6 0 10 5 10 10 0 6 -4 10 -10 10 -5 0
-10 -4 -10 -10z"/>
<path d="M1506 3104 c-4 -9 -4 -19 -1 -22 2 -3 7 3 11 12 4 9 4 19 1 22 -2 3
-7 -3 -11 -12z"/>
<path d="M565 3060 c1 -17 3 -40 4 -52 2 -22 3 -22 11 -3 5 11 9 27 9 35 1 13
0 13 -10 0 -8 -12 -10 -9 -6 13 2 15 1 29 -3 32 -4 2 -6 -9 -5 -25z"/>
<path d="M2856 3067 c3 -10 9 -15 12 -12 3 3 0 11 -7 18 -10 9 -11 8 -5 -6z"/>
<path d="M592 2980 c0 -14 2 -19 5 -12 2 6 2 18 0 25 -3 6 -5 1 -5 -13z"/>
<path d="M3020 2980 c0 -5 5 -10 10 -10 6 0 10 5 10 10 0 6 -4 10 -10 10 -5 0
-10 -4 -10 -10z"/>
<path d="M1433 2932 c0 -12 5 -22 9 -22 11 0 10 12 -2 30 -7 12 -9 10 -7 -8z"/>
<path d="M3020 2940 c0 -5 5 -10 10 -10 6 0 10 5 10 10 0 6 -4 10 -10 10 -5 0
-10 -4 -10 -10z"/>
<path d="M2968 2923 c7 -3 16 -2 19 1 4 3 -2 6 -13 5 -11 0 -14 -3 -6 -6z"/>
<path d="M3922 2900 c0 -14 2 -19 5 -12 2 6 2 18 0 25 -3 6 -5 1 -5 -13z"/>
<path d="M660 2867 c14 -8 41 -17 60 -21 26 -4 30 -3 15 3 -16 8 -12 10 22 10
23 1 44 4 46 9 3 4 -19 7 -48 7 -31 0 -48 -3 -42 -8 13 -9 -24 -4 -58 7 -12 5
-10 2 5 -7z"/>
<path d="M3842 2800 c2 -59 6 -75 18 -75 11 0 16 14 18 58 4 68 22 77 22 11 0
-27 6 -51 15 -60 13 -14 15 -11 15 28 0 24 3 53 6 65 8 29 -20 42 -49 23 -18
-11 -23 -10 -34 6 -12 17 -14 10 -11 -56z"/>
<path d="M3954 2846 c-11 -44 -9 -119 3 -123 14 -5 21 16 28 90 4 46 2 57 -10
57 -8 0 -17 -11 -21 -24z"/>
<path d="M790 2850 l-35 -7 33 -2 c27 -1 32 -5 32 -26 0 -14 4 -25 8 -25 4 0
6 16 4 35 -2 19 -5 34 -6 34 0 -1 -17 -5 -36 -9z"/>
<path d="M802 2810 c0 -14 2 -19 5 -12 2 6 2 18 0 25 -3 6 -5 1 -5 -13z"/>
<path d="M1230 2820 c0 -5 5 -10 10 -10 6 0 10 5 10 10 0 6 -4 10 -10 10 -5 0
-10 -4 -10 -10z"/>
<path d="M2980 2803 c-20 -20 -21 -23 -5 -17 21 8 45 29 45 38 0 12 -15 3 -40
-21z"/>
<path d="M1168 2800 c-18 -21 -13 -26 11 -11 7 5 12 14 10 20 -3 7 -11 3 -21
-9z"/>
<path d="M3010 2780 c0 -5 5 -10 11 -10 5 0 7 5 4 10 -3 6 -8 10 -11 10 -2 0
-4 -4 -4 -10z"/>
<path d="M2910 2776 c0 -2 7 -9 15 -16 13 -11 14 -10 9 4 -5 14 -24 23 -24 12z"/>
<path d="M840 2760 c0 -5 5 -10 11 -10 5 0 7 5 4 10 -3 6 -8 10 -11 10 -2 0
-4 -4 -4 -10z"/>
<path d="M1152 2750 c-7 -11 -8 -20 -3 -20 5 0 18 -3 28 -7 16 -6 16 -5 5 10
-8 9 -11 21 -7 27 3 5 2 10 -2 10 -5 0 -14 -9 -21 -20z"/>
<path d="M728 2743 c10 -4 10 -8 1 -19 -10 -12 -8 -13 7 -7 17 6 17 5 5 -10
-12 -15 -12 -17 3 -11 26 10 10 55 -19 53 -5 0 -4 -3 3 -6z"/>
<path d="M808 2743 c7 -3 16 -2 19 1 4 3 -2 6 -13 5 -11 0 -14 -3 -6 -6z"/>
<path d="M775 2729 c4 -5 22 -9 42 -9 45 0 40 5 -10 13 -22 3 -35 2 -32 -4z"/>
<path d="M3890 2714 c0 -8 5 -12 10 -9 6 3 10 10 10 16 0 5 -4 9 -10 9 -5 0
-10 -7 -10 -16z"/>
<path d="M641 2698 c-1 -16 4 -28 9 -28 12 0 12 8 0 35 -8 18 -9 17 -9 -7z"/>
<path d="M2921 2701 c-8 -6 -9 -11 -3 -15 6 -3 14 -1 17 5 9 14 2 20 -14 10z"/>
<path d="M712 2680 c0 -14 2 -19 5 -12 2 6 2 18 0 25 -3 6 -5 1 -5 -13z"/>
<path d="M920 2690 c-8 -5 -10 -10 -5 -10 6 0 17 5 25 10 8 5 11 10 5 10 -5 0
-17 -5 -25 -10z"/>
<path d="M960 2679 c0 -5 5 -7 10 -4 6 3 10 8 10 11 0 2 -4 4 -10 4 -5 0 -10
-5 -10 -11z"/>
<path d="M651 2644 c0 -11 3 -14 6 -6 3 7 2 16 -1 19 -3 4 -6 -2 -5 -13z"/>
<path d="M685 2651 c-3 -5 -1 -12 5 -16 5 -3 10 1 10 9 0 18 -6 21 -15 7z"/>
<path d="M997 2653 c-18 -4 -17 -6 3 -20 12 -8 24 -12 28 -8 3 3 0 10 -7 14
-11 7 -11 10 0 14 17 7 1 7 -24 0z"/>
<path d="M677 2613 c-3 -5 -1 -17 4 -28 7 -17 8 -17 8 8 1 27 -4 34 -12 20z"/>
<path d="M1047 2599 c7 -7 15 -10 18 -7 3 3 -2 9 -12 12 -14 6 -15 5 -6 -5z"/>
<path d="M1080 2583 c0 -5 9 -14 20 -21 13 -8 20 -8 20 -1 0 5 4 8 8 5 4 -2
14 0 22 5 11 7 7 9 -15 7 -17 -1 -36 1 -43 6 -7 4 -12 3 -12 -1z"/>
<path d="M1150 2531 c8 -16 17 -20 31 -16 14 5 20 2 18 -7 -3 -24 1 -41 8 -35
3 4 11 3 17 -2 7 -6 16 -4 23 4 8 9 9 16 3 20 -6 3 -10 1 -10 -4 0 -6 -5 -11
-11 -11 -5 0 -7 5 -4 11 7 10 -31 44 -50 44 -5 0 -16 4 -23 9 -12 7 -12 4 -2
-13z"/>
<path d="M2796 2525 c-4 -13 -2 -13 14 -5 10 5 26 7 34 4 9 -3 16 -1 16 5 0
17 -57 13 -64 -4z"/>
<path d="M857 2523 c-11 -10 -8 -53 3 -53 6 0 10 14 10 30 0 31 -2 35 -13 23z"/>
<path d="M651 2504 c0 -11 3 -14 6 -6 3 7 2 16 -1 19 -3 4 -6 -2 -5 -13z"/>
<path d="M896 2506 c10 -8 21 -12 24 -10 5 6 -21 24 -34 24 -6 0 -1 -6 10 -14z"/>
<path d="M3175 2513 c-34 -8 -38 -20 -5 -15 16 2 30 8 30 13 0 5 -1 8 -2 8 -2
-1 -12 -3 -23 -6z"/>
<path d="M3245 2510 c3 -5 -5 -12 -17 -16 -13 -4 -29 -15 -36 -25 -7 -11 -19
-19 -25 -19 -7 0 -3 7 7 15 18 13 18 15 3 15 -10 0 -22 -12 -27 -26 -14 -35
-13 -39 5 -24 13 11 14 10 9 -4 -3 -9 -10 -16 -16 -16 -5 0 -6 -5 -3 -10 3 -6
-1 -17 -9 -26 -9 -8 -16 -12 -16 -7 0 4 -5 0 -11 -10 -6 -9 -15 -14 -21 -11
-7 4 -8 2 -4 -5 10 -16 -2 -48 -20 -55 -8 -3 -12 -2 -9 4 9 14 -18 50 -37 50
-10 0 -18 -4 -18 -10 0 -5 9 -10 19 -10 10 0 21 -7 25 -15 4 -11 -1 -15 -19
-15 -16 0 -25 -6 -25 -16 0 -14 -3 -14 -15 -4 -12 10 -15 10 -15 -1 0 -11 -2
-11 -10 1 -5 8 -12 11 -15 8 -4 -4 0 -17 9 -30 13 -18 16 -19 16 -5 0 9 5 17
11 17 6 0 9 -7 5 -15 -3 -8 -1 -15 4 -15 6 0 10 5 10 11 0 19 30 41 48 34 16
-6 15 -7 -3 -18 -11 -6 -28 -19 -39 -28 -10 -10 -23 -16 -29 -12 -5 3 -13 -1
-18 -8 -7 -12 -12 -12 -30 -1 -19 12 -21 12 -16 -1 3 -8 -2 -22 -12 -31 -16
-15 -19 -15 -31 -1 -7 9 -8 15 -2 15 6 0 12 -5 14 -12 3 -8 6 -7 10 3 5 12 -2
15 -27 15 -33 -1 -33 -1 -14 -19 11 -11 18 -22 15 -25 -4 -3 -21 8 -38 24 -18
16 -26 21 -19 12 9 -13 10 -22 1 -37 -10 -19 -7 -25 13 -22 10 2 9 -17 -3 -24
-5 -3 -19 -1 -30 5 -20 11 -30 -3 -10 -15 14 -9 -7 -45 -25 -45 -8 0 -15 -5
-15 -11 0 -6 7 -9 14 -6 10 4 13 1 9 -9 -6 -16 -15 -18 -28 -5 -6 6 -10 -1
-11 -20 -1 -22 2 -27 8 -17 7 9 8 4 4 -14 -15 -70 -17 -83 -8 -63 8 18 9 17
16 -8 7 -31 1 -47 -19 -47 -21 0 -29 -38 -11 -55 13 -13 15 -13 19 3 2 9 3 -9
3 -41 l-2 -59 -47 -22 c-25 -13 -44 -26 -40 -30 3 -3 0 -6 -7 -6 -7 0 -22 -8
-33 -17 -12 -10 -17 -12 -12 -4 5 9 3 12 -6 9 -8 -3 -14 -9 -14 -15 0 -16 -98
-81 -114 -75 -8 2 -11 0 -8 -5 3 -5 -3 -9 -15 -9 -12 1 -23 -6 -26 -14 -5 -13
-3 -13 14 0 18 14 18 14 5 -2 -19 -25 -25 -23 -39 16 -21 57 -72 77 -107 42
-18 -19 -12 -130 8 -150 17 -17 23 -36 11 -36 -4 0 -13 8 -20 17 -16 23 -35 6
-24 -22 8 -18 9 -18 9 4 1 31 9 23 26 -26 13 -35 14 -36 15 -10 0 15 5 27 10
27 6 0 10 -4 10 -9 0 -5 15 -11 33 -13 27 -3 40 3 68 29 19 18 39 33 45 33 6
0 19 9 29 20 18 20 56 23 72 6 4 -5 -3 -6 -16 -3 -16 4 -35 -3 -62 -22 -21
-16 -35 -31 -32 -35 11 -11 23 -7 23 8 0 8 6 16 14 19 19 8 57 -3 50 -14 -3
-5 -1 -9 4 -9 6 0 12 7 16 15 3 8 0 15 -6 15 -6 0 -9 2 -6 5 3 3 13 3 22 -1
15 -6 15 -9 3 -23 -22 -24 -30 -58 -16 -67 9 -5 10 -2 6 9 -8 22 9 22 21 0 9
-14 12 -14 33 7 23 21 23 22 2 11 -31 -16 -42 -13 -19 4 28 21 49 19 41 -4 -3
-11 -1 -22 5 -26 5 -3 10 -1 10 6 0 7 4 8 13 2 6 -5 18 -8 25 -7 6 1 22 2 35
3 16 1 18 4 9 10 -10 6 -9 10 7 14 12 3 19 1 15 -4 -3 -5 2 -6 10 -3 8 3 13
11 10 17 -2 7 7 17 21 24 14 6 25 7 25 2 0 -5 -5 -9 -10 -9 -6 0 -16 -11 -22
-25 -6 -14 -17 -25 -25 -25 -7 0 -13 -4 -13 -10 0 -20 18 -9 53 31 29 32 41
39 59 34 22 -6 22 -6 4 9 -11 9 -17 16 -13 16 7 0 50 -25 67 -38 3 -2 -3 -9
-13 -17 -16 -12 -16 -13 -1 -19 10 -4 22 -2 28 4 8 8 5 9 -9 4 -16 -5 -17 -4
-9 6 7 7 21 9 34 5 19 -6 16 -10 -31 -41 -30 -19 -57 -34 -62 -34 -5 0 -21 -9
-35 -21 -18 -14 -34 -18 -52 -14 -14 3 -20 2 -15 -2 6 -4 10 -14 9 -20 -1 -7
-2 -17 -3 -22 0 -5 -13 -17 -28 -27 -25 -16 -26 -16 -14 -1 8 10 11 21 7 24
-4 4 -11 1 -16 -7 -6 -8 -10 -10 -10 -5 0 6 5 17 10 25 9 13 11 13 19 0 6 -8
13 -11 17 -8 3 4 -1 14 -9 23 -10 10 -18 12 -22 5 -5 -8 -11 -7 -21 1 -8 6
-17 9 -21 5 -3 -3 -1 -6 5 -6 7 0 12 -5 12 -11 0 -8 -5 -8 -15 1 -8 7 -24 10
-35 7 -27 -7 -25 1 3 13 l22 9 -22 0 c-12 1 -27 -7 -32 -16 -6 -10 -11 -12
-11 -5 0 17 -20 15 -20 -3 0 -8 4 -15 9 -15 5 0 8 -22 8 -49 -1 -42 -3 -47
-13 -33 -7 9 -10 27 -7 40 5 23 -13 72 -28 72 -4 0 -5 -9 -2 -20 3 -11 9 -20
14 -20 5 0 9 -10 9 -22 0 -21 -1 -21 -13 -3 -13 17 -14 16 -12 -11 1 -16 6
-42 10 -59 5 -23 4 -26 -4 -15 -7 9 -11 10 -11 3 0 -20 18 -24 28 -7 8 15 11
14 26 -7 9 -13 16 -31 16 -41 0 -10 1 -18 3 -18 1 0 20 -6 41 -14 36 -12 41
-12 60 5 11 11 26 17 33 15 7 -3 15 -1 18 4 3 4 0 10 -6 12 -7 2 -5 9 5 17 14
12 16 12 10 -4 -6 -15 -4 -16 14 -6 11 6 32 11 45 11 14 0 28 7 31 16 9 24 7
29 -6 16 -7 -7 -16 -12 -22 -12 -6 0 -5 5 2 12 24 24 11 31 -14 7 -15 -13 -23
-17 -18 -8 5 9 40 40 78 69 38 29 66 48 63 43 -10 -16 28 -44 48 -37 13 5 16
4 11 -4 -4 -7 -3 -12 2 -12 5 0 10 11 10 25 0 24 -2 25 -18 10 -21 -19 -26
-19 -34 0 -4 11 0 15 12 13 10 -2 16 2 14 11 -2 9 3 11 13 7 10 -3 13 -2 10 5
-4 5 -1 17 6 25 10 12 9 13 -7 8 -17 -5 -17 -4 -2 5 12 8 25 8 45 0 22 -8 26
-8 16 2 -7 7 -13 16 -13 20 0 12 58 31 102 32 24 1 45 5 48 8 3 4 16 10 29 14
18 5 22 4 16 -6 -6 -9 -3 -11 9 -6 10 4 21 7 24 7 4 0 0 5 -8 11 -12 8 -9 9
12 5 22 -5 26 -3 22 8 -4 11 3 17 23 22 15 4 30 10 33 14 9 12 127 80 139 80
6 0 11 5 11 11 0 6 9 8 22 3 20 -6 21 -5 10 8 -10 13 -8 18 12 32 14 8 40 32
59 51 37 38 55 34 36 -9 -12 -26 -29 -35 -29 -16 0 18 -16 10 -30 -15 -7 -13
-17 -22 -21 -19 -4 2 -10 0 -13 -5 -15 -24 18 -20 38 4 17 19 26 24 31 15 5
-8 14 -3 27 17 12 17 17 20 13 8 -4 -11 -9 -29 -11 -40 -4 -17 -3 -17 7 3 7
12 16 22 21 22 10 0 11 -14 1 -24 -4 -4 -8 -22 -9 -39 -1 -18 -5 -45 -8 -62
-6 -28 -5 -28 9 5 13 30 15 31 12 8 -3 -19 0 -25 10 -21 7 3 13 0 13 -6 0 -6
6 -11 14 -11 19 0 27 -39 14 -64 -10 -18 -9 -19 4 -8 13 11 17 7 26 -29 9 -34
8 -45 -4 -57 -13 -13 -14 -11 -9 11 4 14 2 34 -5 44 -10 16 -10 16 -5 -4 7
-27 -2 -46 -17 -37 -6 4 -5 9 3 15 17 10 8 20 -19 22 -11 0 -18 5 -15 10 3 4
12 6 22 2 12 -5 13 -3 5 5 -9 9 -17 9 -32 1 -33 -17 -39 -12 -12 9 14 10 22
22 18 25 -4 4 -17 -3 -29 -14 -13 -12 -29 -19 -37 -16 -7 3 -41 6 -75 6 -58 2
-59 2 -22 9 l40 7 -42 2 c-32 1 -43 -3 -43 -14 0 -18 -36 -20 -43 -2 -3 7 -6
5 -6 -5 -1 -10 -6 -18 -12 -18 -5 0 -8 4 -4 9 3 5 2 12 -3 15 -12 7 -11 -28 1
-35 11 -8 0 -49 -14 -49 -6 0 -5 8 1 20 10 19 9 20 -8 9 -16 -10 -23 -10 -37
4 -9 9 -26 17 -38 17 -17 0 -19 2 -8 9 10 6 22 5 35 -5 26 -18 42 -18 24 -1
-22 22 -46 27 -78 15 -31 -10 -55 -3 -32 11 7 4 -3 7 -23 8 -19 1 -38 -3 -41
-8 -3 -5 5 -8 17 -6 12 1 24 -4 26 -11 3 -8 -1 -10 -14 -5 -10 3 -15 3 -11 -2
12 -12 -24 -34 -55 -35 -16 0 -26 -4 -22 -10 3 -5 13 -7 23 -4 16 5 16 5 0 -5
-9 -6 -28 -26 -43 -44 -14 -17 -23 -25 -20 -16 4 10 0 16 -9 16 -10 0 -12 -6
-6 -22 12 -30 1 -75 -19 -76 -10 0 -11 -2 -3 -6 6 -2 12 -15 12 -28 0 -13 -6
-26 -12 -29 -9 -4 -10 -8 -2 -11 6 -3 9 -16 7 -29 -3 -12 1 -29 9 -37 7 -8 14
-27 14 -44 3 -59 4 -65 14 -65 5 0 7 7 4 15 -8 20 26 20 52 -1 10 -8 13 -12 5
-8 -9 5 -12 3 -7 -5 4 -6 11 -9 16 -6 12 7 94 -14 87 -22 -4 -3 -21 -9 -39
-14 -29 -7 -27 -8 12 -3 24 3 50 10 57 16 7 5 21 7 30 3 15 -6 13 -9 -12 -20
l-30 -13 33 -1 c17 -1 32 4 32 9 0 6 8 10 18 11 14 0 14 2 -3 9 -18 8 -17 9 8
9 15 1 42 7 60 14 18 7 56 12 86 11 29 -1 48 2 42 6 -8 4 7 14 39 24 35 11 56
14 64 7 15 -12 66 -32 66 -26 0 3 -15 14 -32 25 -34 20 -22 28 13 10 21 -12
27 4 7 17 -10 6 -2 19 26 48 22 22 37 32 33 23 -3 -10 -2 -18 2 -18 5 0 14 15
20 32 7 21 14 29 19 21 5 -8 14 -8 32 3 l25 14 -27 -6 c-20 -4 -28 -2 -28 7
-1 9 -8 5 -20 -10 -11 -13 -20 -19 -20 -14 0 14 34 43 49 43 23 0 71 41 71 60
0 41 71 28 78 -15 4 -19 3 -19 -18 3 -11 12 -28 22 -38 21 -14 0 -14 -2 -2 -6
8 -3 25 -17 37 -30 33 -35 99 -37 90 -3 -3 12 1 24 11 30 10 5 12 10 5 10 -7
0 -13 4 -13 9 0 6 17 8 38 6 31 -4 33 -3 12 4 l-25 9 25 2 c14 1 37 1 53 0 20
-1 27 3 26 17 0 10 -3 13 -6 6 -2 -7 -12 -13 -20 -13 -13 0 -11 4 5 19 26 22
29 36 6 27 -12 -4 -14 -1 -9 13 4 13 -1 24 -15 34 -16 11 -18 17 -9 22 7 5 17
1 24 -9 17 -23 42 -10 47 24 2 16 1 27 -4 24 -4 -3 -8 -14 -8 -25 0 -12 -5
-19 -12 -16 -7 2 -12 14 -10 25 2 12 -1 22 -7 22 -6 0 -8 -6 -5 -14 3 -8 -4
-16 -18 -19 -13 -4 -24 -2 -26 3 -5 15 -22 12 -22 -4 0 -7 -12 -16 -27 -19
l-28 -5 22 18 c18 14 20 19 9 23 -8 3 -17 1 -20 -6 -2 -7 -5 -4 -5 6 -1 10 -5
16 -11 12 -5 -3 -6 -13 -3 -23 6 -15 5 -15 -10 -4 -13 11 -14 17 -4 32 6 11 8
23 4 27 -10 9 -28 -18 -20 -30 3 -5 0 -7 -8 -5 -8 3 -22 -4 -31 -15 -21 -23
-22 -33 -7 -42 6 -4 -1 -13 -16 -21 -35 -18 -40 -18 -24 3 13 15 11 16 -16 9
-18 -4 -25 -3 -17 2 7 5 10 16 6 27 -4 11 -3 16 2 12 5 -3 10 3 10 13 0 10 -3
17 -7 14 -10 -6 -21 44 -14 69 2 12 2 16 -1 9 -9 -19 -44 15 -43 42 0 19 1 19
11 -4 6 -15 12 -20 15 -12 3 7 -2 23 -10 36 -9 13 -13 33 -10 45 6 23 -23 65
-38 55 -5 -3 -9 2 -9 11 0 9 4 14 9 11 14 -9 6 57 -12 92 -9 18 -11 34 -6 38
5 3 9 0 9 -6 0 -6 5 -8 10 -5 7 4 7 11 2 18 -5 7 -6 21 -1 32 6 17 8 17 8 3 1
-12 6 -15 17 -11 15 6 15 7 -1 19 -16 12 -15 15 10 39 16 14 25 28 22 31 -3 4
-13 -1 -22 -10 -25 -24 -39 -19 -15 6 11 12 20 26 20 31 0 4 10 5 21 2 15 -5
19 -4 15 4 -4 6 -16 11 -26 11 -26 0 -32 14 -19 47 6 15 11 46 11 68 0 22 3
31 5 20 3 -11 10 -23 17 -27 8 -6 7 -11 -4 -17 -8 -6 -11 -13 -7 -18 5 -4 12
-1 17 7 8 13 10 13 10 1 0 -8 3 -12 6 -9 3 3 -9 36 -26 73 -25 53 -30 73 -22
89 8 18 10 16 9 -15 -1 -43 26 -80 38 -52 3 10 3 14 -1 10 -10 -10 -35 29 -29
45 3 7 1 27 -4 43 -7 24 -9 26 -10 8 -1 -23 -18 -42 -18 -20 0 7 -3 25 -7 40
-6 26 -5 27 15 17 16 -9 24 -9 33 1 8 9 7 11 -6 6 -20 -7 -33 7 -42 46 -4 16
-11 25 -17 21 -6 -3 -9 0 -8 7 3 20 -12 69 -21 69 -5 0 -12 -4 -15 -10 -3 -5
-1 -10 4 -10 6 0 11 -9 11 -21 0 -11 4 -17 10 -14 6 3 7 -1 4 -10 -5 -12 -12
-7 -30 22 -29 47 -29 53 -4 53 11 0 20 4 20 8 0 9 -58 7 -67 -2 -4 -3 -1 -6 5
-6 7 0 12 -5 12 -12 0 -7 -15 3 -34 21 -19 19 -32 40 -29 47 5 14 -12 20 -20
7 -2 -5 -2 -2 0 6 2 8 -2 11 -12 7 -8 -3 -22 -3 -30 0 -14 6 -14 8 1 18 14 11
14 13 0 25 -9 8 -16 20 -16 27 0 8 -8 14 -17 14 -15 0 -16 -2 -3 -10 12 -8 13
-12 2 -19 -10 -6 -8 -10 9 -14 49 -13 8 -18 -45 -5 -42 9 -52 15 -39 21 11 4
5 5 -16 2 -26 -4 -32 -2 -27 10 7 19 -1 19 -20 1 -11 -11 -11 -16 -1 -19 9 -4
9 -6 -1 -6 -7 -1 -17 9 -22 22 -5 12 -9 16 -9 9 -1 -7 -6 -10 -11 -7 -7 5 -8
11 -1 19 7 8 5 12 -9 12 -10 0 -16 -5 -12 -11 3 -5 -1 -5 -9 1 -16 13 -142 16
-134 4z m143 -40 c36 -22 62 -72 62 -120 0 -40 -19 -46 -66 -20 -29 16 -54 20
-99 18 l-60 -2 -2 40 c-6 84 87 131 165 84z m213 -70 c37 -20 54 -35 25 -24
-8 3 -17 0 -22 -7 -4 -8 -3 -10 4 -5 19 12 82 -23 75 -41 -4 -11 -2 -14 5 -9
7 4 24 -2 38 -13 15 -12 22 -21 17 -21 -5 0 -14 5 -21 12 -6 6 -14 9 -18 5 -3
-3 11 -14 32 -24 30 -14 46 -31 67 -72 28 -57 35 -91 16 -91 -6 0 -8 10 -5 23
3 12 3 16 0 9 -3 -6 -9 -10 -14 -7 -10 6 -7 -72 3 -81 4 -4 7 5 7 19 0 30 14
36 24 11 9 -24 7 -146 -3 -140 -4 3 -8 -11 -7 -32 1 -34 -1 -37 -26 -36 -16 0
-28 -3 -28 -8 0 -4 -7 -4 -17 -1 -10 4 -14 2 -10 -4 4 -6 23 -10 42 -9 19 2
35 2 35 1 0 -16 -29 -65 -34 -57 -3 6 -2 14 4 17 8 5 7 11 -1 21 -9 12 -16 10
-42 -12 -30 -25 -67 -29 -74 -7 -2 6 9 26 26 45 29 31 30 32 25 8 -5 -21 -4
-22 6 -7 6 9 18 17 25 17 10 0 15 11 15 35 0 38 15 47 25 15 4 -11 11 -18 16
-15 4 3 -1 21 -14 40 -18 28 -23 31 -29 17 -4 -10 -7 -12 -7 -4 -1 7 4 22 10
33 18 34 16 111 -3 144 -10 17 -18 37 -18 45 1 9 6 5 14 -9 15 -27 46 -37 46
-15 0 17 -16 18 -24 2 -3 -7 -4 1 -2 18 3 28 1 30 -20 26 -13 -2 -24 -11 -24
-19 0 -11 -8 -8 -30 11 -19 15 -48 27 -78 31 -64 8 -118 29 -114 44 1 7 -2 10
-7 6 -16 -9 -2 -31 27 -41 l27 -10 -22 -12 c-20 -11 -22 -10 -16 4 4 11 3 15
-5 10 -16 -10 -30 23 -29 73 0 24 -5 46 -10 50 -5 3 -13 21 -16 40 l-7 33 51
-6 c28 -4 68 -15 90 -26z m-451 -64 c0 -2 -7 -9 -15 -16 -13 -11 -14 -10 -9 4
5 14 24 23 24 12z m327 -43 c-3 -10 -5 -2 -5 17 0 19 2 27 5 18 2 -10 2 -26 0
-35z m-119 14 c17 -13 29 -26 26 -29 -3 -4 -1 -9 5 -13 6 -3 11 1 11 9 0 9 4
16 8 16 5 0 9 -13 9 -30 0 -32 -6 -37 -24 -19 -9 9 -10 7 -6 -10 3 -11 8 -21
12 -21 13 0 31 24 31 42 0 34 30 6 61 -57 27 -56 30 -70 24 -114 -9 -65 -24
-76 -27 -19 l-1 43 -4 -40 c-2 -22 -11 -46 -20 -52 -9 -7 -13 -16 -9 -20 4 -4
11 -1 16 7 5 8 11 12 14 9 3 -3 -8 -25 -24 -49 -17 -25 -30 -40 -30 -35 0 6
-5 2 -11 -7 -5 -10 -17 -18 -25 -18 -9 0 -12 -5 -8 -11 4 -8 0 -8 -15 0 -17
10 -22 9 -27 -4 -7 -16 -24 -21 -24 -6 0 5 7 17 16 25 8 9 11 16 5 16 -5 0
-17 -7 -25 -16 -14 -13 -16 -13 -16 -1 0 9 6 17 12 19 10 4 10 10 0 33 -11 23
-10 30 3 45 8 9 15 27 16 41 0 22 1 23 9 4 8 -18 9 -18 9 6 1 34 34 71 55 63
9 -3 16 -1 16 5 0 6 -5 11 -11 11 -7 0 -10 14 -7 35 2 19 0 35 -5 35 -5 0 -16
9 -25 19 -28 32 -57 35 -86 8 -14 -13 -23 -27 -20 -30 3 -3 -3 -8 -14 -11 -11
-4 -32 -18 -46 -31 -28 -26 -92 -63 -83 -48 3 5 -4 20 -15 33 -13 16 -18 19
-14 8 3 -10 1 -18 -5 -18 -7 0 -9 10 -4 28 8 32 13 37 45 47 21 7 23 5 13 -6
-9 -12 -3 -14 38 -15 27 -1 49 3 49 8 0 5 -4 7 -9 4 -5 -3 -16 6 -26 20 -9 14
-19 23 -22 20 -3 -3 2 -13 11 -22 26 -25 10 -29 -21 -4 -16 12 -29 17 -31 11
-5 -15 -29 -14 -38 1 -5 8 -2 9 10 5 12 -5 16 -3 14 5 -6 16 49 61 63 52 6 -3
15 0 20 7 10 16 64 37 100 38 14 1 39 -10 57 -22z m-301 -85 c-17 -19 -33 -97
-18 -87 5 2 11 -5 14 -18 6 -20 4 -20 -18 5 -13 16 -27 24 -30 18 -3 -5 -12
-7 -20 -4 -8 4 -20 -6 -30 -25 -19 -38 -29 -41 -12 -3 15 35 36 50 64 47 19
-2 22 1 17 17 -4 13 2 28 17 44 26 28 40 33 16 6z m780 -14 c-3 -8 -6 -5 -6 6
-1 11 2 17 5 13 3 -3 4 -12 1 -19z m-754 -18 c-3 -12 -8 -19 -11 -16 -5 6 5
36 12 36 2 0 2 -9 -1 -20z m597 5 c57 -29 96 -117 71 -163 -14 -27 -89 -62
-133 -62 -19 0 -46 8 -59 19 -23 18 -24 25 -23 111 1 67 5 94 15 101 22 14 97
10 129 -6z m-832 -53 c2 -6 -6 -10 -16 -9 -12 1 -18 6 -15 14 6 16 25 13 31
-5z m450 -15 c26 -39 28 -57 7 -57 -8 0 -15 5 -15 11 0 5 4 7 10 4 6 -4 7 1 3
11 -6 16 -7 16 -19 0 -12 -16 -13 -16 -24 3 -6 12 -7 21 -3 21 4 0 2 4 -6 9
-15 10 -7 31 12 31 7 0 22 -15 35 -33z m-278 -11 c0 -19 32 -33 79 -34 24 -1
50 -7 57 -12 8 -8 14 -8 19 0 3 5 0 10 -7 11 -9 0 -9 2 2 6 8 4 21 13 29 21
13 13 17 11 30 -17 8 -17 19 -31 23 -31 5 0 6 -5 3 -10 -4 -6 -13 -7 -24 -1
-13 8 -17 5 -18 -12 0 -12 1 -16 4 -9 8 21 21 13 16 -10 -4 -22 -4 -22 8 -3
16 26 29 34 46 28 8 -3 10 -10 5 -17 -5 -6 -17 -32 -27 -58 -16 -44 -16 -48 1
-76 18 -31 51 -52 82 -52 16 -1 16 -1 0 -10 -17 -11 -18 -42 -1 -47 6 -2 13 3
16 12 4 10 1 15 -10 15 -11 0 -5 9 17 25 19 14 47 25 63 25 25 0 29 3 24 22
-4 15 1 30 14 44 l20 21 46 -24 c33 -16 58 -22 82 -18 20 2 28 2 19 -1 -24 -7
-23 -34 3 -87 17 -36 26 -43 42 -39 13 3 18 1 14 -5 -10 -17 20 -24 47 -11 16
7 23 16 19 27 -4 12 -3 13 6 5 13 -12 4 -47 -10 -38 -5 3 -9 -4 -9 -15 0 -12
-5 -21 -11 -21 -5 0 -7 5 -4 10 9 14 -8 13 -23 -2 -14 -14 -16 -42 -3 -34 5 3
21 -14 35 -38 32 -55 50 -100 36 -91 -6 4 -10 -7 -9 -27 1 -30 2 -31 8 -8 l7
25 13 -23 c7 -12 9 -32 5 -44 -4 -13 -2 -18 4 -14 6 4 8 -2 5 -15 -3 -11 -1
-31 6 -45 6 -13 16 -34 22 -47 7 -16 7 -31 -2 -52 l-12 -30 -7 25 c-4 14 -5
36 -3 50 4 20 2 22 -6 10 -9 -13 -11 -13 -11 3 0 9 5 17 10 17 6 0 10 5 10 11
0 5 -4 7 -10 4 -6 -3 -10 4 -10 17 0 13 -5 30 -10 38 -8 11 -9 7 -5 -15 3 -16
-4 -5 -15 24 -11 30 -17 64 -14 74 4 13 2 17 -5 13 -11 -7 -36 35 -43 69 -4
26 -36 51 -50 37 -5 -5 -11 -18 -12 -28 -2 -13 -11 -19 -29 -18 -15 1 -24 -3
-21 -7 3 -5 -4 -9 -16 -9 -12 0 -19 -4 -15 -10 6 -10 36 -2 48 14 6 8 8 8 5 0
-6 -21 -122 -115 -135 -109 -8 2 -12 1 -8 -4 5 -10 -92 -74 -112 -74 -7 0 -13
-4 -13 -8 0 -13 -102 -47 -190 -63 -45 -9 -83 -16 -85 -16 -1 0 -14 -11 -29
-25 -15 -14 -35 -25 -46 -25 -27 0 -50 -11 -50 -23 0 -7 4 -7 12 1 7 7 16 12
21 12 6 0 -24 -27 -66 -60 -52 -41 -82 -58 -94 -54 -14 4 -15 4 -4 -4 8 -6 9
-12 3 -16 -6 -3 -13 -2 -17 4 -3 5 -11 10 -18 10 -6 0 -2 -7 9 -15 19 -15 19
-15 -5 -35 -19 -16 -27 -18 -38 -9 -11 10 -18 8 -31 -6 -14 -16 -14 -17 -1 -7
14 10 18 10 22 -2 10 -27 -53 -60 -68 -36 -3 6 1 7 9 4 13 -5 16 1 16 27 -1
50 -17 111 -32 120 -9 6 -10 9 -1 9 15 0 33 -31 33 -57 0 -10 5 -25 10 -33 8
-12 12 -12 19 -2 4 7 17 15 27 16 10 2 19 9 19 17 0 7 10 19 23 25 13 6 23 14
23 18 -2 19 1 24 16 30 19 8 40 -8 24 -18 -6 -4 -11 -2 -11 4 0 6 -4 8 -10 5
-5 -3 -10 -11 -10 -16 0 -6 5 -7 10 -4 6 3 10 1 10 -6 0 -8 7 -6 20 6 17 15
17 19 5 32 -17 17 -20 27 -5 18 6 -3 10 -2 10 4 0 6 7 7 17 4 11 -4 14 -3 9 5
-11 18 54 48 116 54 10 2 14 6 9 11 -5 5 -18 4 -30 -2 -12 -7 -21 -9 -21 -7 0
3 19 15 41 27 41 20 41 21 20 36 -12 8 -33 16 -47 18 -14 1 -31 8 -37 14 -9 9
-8 11 4 6 11 -4 21 5 35 30 11 21 24 33 32 30 8 -3 10 0 6 6 -4 8 3 9 25 4 19
-4 31 -3 31 4 0 6 -7 7 -17 4 -10 -4 -14 -2 -10 5 4 6 22 14 39 18 18 3 40 11
49 17 13 8 21 7 32 -5 9 -9 13 -19 9 -22 -3 -4 2 -4 13 0 11 5 14 9 7 12 -7 2
-10 8 -6 13 3 5 -1 9 -8 9 -14 1 33 23 95 46 21 7 35 10 33 5 -3 -5 4 -11 16
-14 15 -4 18 -3 10 5 -8 8 -6 16 10 30 12 10 26 18 32 18 6 0 33 11 59 25 26
14 52 23 57 20 6 -3 10 -1 10 6 0 7 3 9 6 6 4 -4 1 -14 -7 -23 -13 -16 -12
-16 9 -5 15 8 21 18 18 27 -4 12 -1 14 14 9 14 -4 20 -2 18 7 -2 7 3 12 11 10
7 -1 19 3 27 9 11 9 14 7 14 -12 1 -18 4 -14 15 16 12 31 12 45 4 62 -12 22
-24 23 -124 11 -5 -1 -21 2 -35 6 -23 6 -24 6 -7 -7 17 -14 16 -15 -12 -25
-16 -6 -40 -8 -53 -5 -18 4 -20 3 -8 -6 16 -11 9 -14 -25 -12 -17 2 -17 0 -5
-8 9 -7 10 -11 3 -11 -6 0 -15 5 -18 10 -4 6 -11 7 -17 4 -6 -4 -5 -10 3 -15
15 -10 3 -13 -36 -10 -15 1 -17 0 -7 -7 11 -7 6 -12 -19 -21 -41 -14 -52 -14
-43 0 4 7 1 10 -7 7 -8 -3 -13 -11 -11 -17 1 -6 -5 -11 -13 -11 -8 0 -15 -6
-15 -12 0 -9 -4 -8 -10 2 -5 8 -10 10 -10 4 0 -24 -30 -22 -58 4 -15 15 -61
52 -102 82 -104 78 -158 137 -125 137 8 0 12 -4 9 -9 -3 -4 2 -5 12 -1 13 5
15 2 9 -18 -4 -13 -6 -22 -4 -19 2 3 13 16 24 29 11 14 15 21 8 17 -22 -13
-103 40 -103 67 0 7 4 6 10 -3 6 -9 10 -10 10 -3 0 6 -4 15 -10 18 -15 9 -12
31 6 49 8 9 12 20 9 26 -3 5 1 10 10 10 10 0 13 5 9 13 -6 8 -3 8 9 -1 21 -18
29 -12 52 36 14 29 26 40 42 40 13 0 23 -6 23 -12z m-130 -15 c-13 -25 -48
-54 -57 -48 -5 3 -10 -4 -10 -16 -2 -17 0 -19 7 -7 5 8 10 10 10 5 0 -6 -5
-16 -12 -23 -6 -6 -12 -37 -13 -69 -2 -38 0 -51 5 -38 5 11 9 17 9 13 1 -3 4
-13 7 -21 4 -11 0 -15 -13 -13 -10 2 -24 -2 -32 -8 -11 -8 -13 -8 -8 1 4 6 3
15 -3 18 -20 13 -8 89 24 143 17 28 35 52 40 52 4 0 2 -8 -5 -17 -13 -16 -12
-17 3 -4 10 7 15 18 12 23 -7 11 10 25 31 25 10 0 11 -5 5 -16z m40 -45 c0 -5
-7 -3 -15 4 -8 7 -12 17 -9 22 7 10 24 -9 24 -26z m380 -116 c0 -5 -4 -10 -10
-10 -5 0 -10 5 -10 10 0 6 5 10 10 10 6 0 10 -4 10 -10z m440 0 c-8 -5 -10
-10 -5 -10 6 0 11 -9 11 -20 0 -26 -10 -25 -24 3 -9 19 -11 19 -11 3 -1 -11
-6 -16 -15 -13 -16 6 -56 -32 -57 -54 0 -8 -4 -6 -8 6 -9 22 11 45 65 77 32
19 72 26 44 8z m-310 -60 c0 -5 -5 -10 -11 -10 -5 0 -7 5 -4 10 3 6 8 10 11
10 2 0 4 -4 4 -10z m-610 -35 c0 -7 7 -15 15 -19 8 -3 15 -1 15 4 0 6 -4 10
-10 10 -5 0 -10 6 -10 13 0 6 14 -4 29 -23 16 -19 27 -38 25 -42 -3 -5 3 -8
13 -8 10 0 34 -14 53 -31 21 -18 28 -29 18 -27 -9 2 -23 -6 -32 -17 -14 -19
-15 -19 -35 -1 -15 13 -18 23 -11 31 7 8 4 18 -11 31 -13 12 -19 14 -17 5 2
-7 -2 -15 -8 -18 -7 -2 -11 4 -10 14 0 10 -4 18 -11 18 -6 0 -15 4 -20 9 -5 5
-3 6 5 2 21 -12 13 6 -15 31 -20 20 -23 27 -13 33 17 10 30 4 30 -15z m1025
16 c3 -5 1 -12 -5 -16 -5 -3 -10 1 -10 9 0 18 6 21 15 7z m-1074 -92 c-11 -4
-12 -7 -2 -13 6 -4 20 -2 29 5 9 7 14 10 10 5 -4 -5 18 -33 50 -63 31 -30 47
-50 35 -44 -13 7 -23 9 -23 6 0 -3 -1 -8 -2 -12 -2 -4 13 -8 32 -9 19 -1 38
-2 41 -3 10 -2 73 -61 68 -65 -12 -11 -48 -15 -54 -6 -8 12 -45 13 -45 1 0 -5
-8 -12 -17 -15 -10 -3 0 -3 22 -1 l40 5 -45 -21 c-74 -34 -125 -26 -85 14 8 9
11 18 6 21 -5 3 -12 -2 -15 -11 -6 -14 -9 -12 -21 11 -8 15 -13 32 -10 36 3 5
1 10 -4 12 -4 1 -12 14 -16 28 l-8 25 24 -20 c17 -15 20 -15 10 -3 -7 10 -11
25 -7 33 3 9 2 14 -2 12 -4 -3 -14 2 -21 11 -13 14 -13 15 5 10 11 -3 29 1 40
9 17 13 16 14 -13 8 -39 -6 -47 5 -38 52 6 36 7 36 19 12 10 -20 9 -25 -3 -30z
m954 1 c-3 -5 -11 -10 -16 -10 -6 0 -7 5 -4 10 3 6 11 10 16 10 6 0 7 -4 4
-10z m95 0 c0 -5 -4 -10 -10 -10 -5 0 -7 -7 -4 -15 4 -8 1 -15 -5 -15 -6 0
-11 -6 -11 -13 0 -7 -7 -22 -15 -33 -11 -14 -10 -4 5 36 11 30 20 56 20 58 0
1 5 2 10 2 6 0 10 -4 10 -10z m-799 -75 c16 -9 34 -26 39 -38 6 -12 17 -33 26
-47 12 -19 11 -18 -6 3 -17 22 -25 25 -36 16 -8 -6 -11 -16 -7 -23 3 -6 -4 -2
-16 9 -21 18 -21 20 -5 32 14 10 15 13 3 13 -8 0 -20 -5 -25 -10 -7 -7 -18 -2
-33 14 -40 42 -1 62 60 31z m789 -69 c0 -6 -5 -18 -10 -26 -8 -11 -9 -7 -4 15
4 20 3 26 -4 17 -7 -11 -10 -11 -15 3 -5 11 -3 14 5 9 8 -5 9 -1 5 12 -7 18
-7 18 8 0 8 -11 15 -25 15 -30z m-1090 24 c0 -5 -6 -10 -14 -10 -8 0 -18 -5
-21 -11 -10 -16 28 -6 43 11 11 13 12 13 10 0 -6 -29 -26 -42 -48 -30 -14 7
-26 8 -39 0 -40 -21 -34 -9 9 19 49 32 60 36 60 21z m485 -60 c-22 -10 -44
-18 -50 -18 -5 0 8 8 30 19 22 10 45 18 50 18 6 0 -8 -9 -30 -19z m-558 -17
c0 -7 -2 -11 -5 -9 -2 3 -16 -6 -30 -20 -15 -13 -31 -24 -37 -23 -5 0 -4 3 3
6 24 9 1 22 -24 13 -28 -11 -73 -50 -57 -50 5 0 18 9 28 20 10 11 22 17 26 14
12 -7 -44 -54 -64 -54 -8 0 -18 -7 -21 -16 -3 -9 -12 -14 -20 -11 -9 3 -16 -3
-19 -15 -4 -14 -11 -19 -21 -15 -9 4 -15 3 -13 -1 1 -4 -2 -8 -8 -9 -5 -1 -9
5 -7 13 2 8 -2 14 -8 14 -5 0 -10 8 -10 17 0 15 1 15 13 1 6 -8 20 -18 30 -21
14 -5 16 -3 8 12 -12 21 -5 32 14 25 7 -3 16 0 21 7 5 8 3 10 -7 5 -26 -14 26
26 91 68 63 41 117 54 117 29z m111 10 c-1 -5 3 -18 10 -30 8 -15 9 -23 2 -23
-5 0 -10 7 -10 15 0 9 -7 18 -15 21 -8 4 -12 10 -9 15 6 11 25 12 22 2z m310
-18 c-3 -3 -9 2 -12 12 -6 14 -5 15 5 6 7 -7 10 -15 7 -18z m-733 -27 c3 -3
-5 -8 -19 -10 -16 -3 -23 -1 -19 8 4 12 27 13 38 2z m416 -11 c6 -9 19 -17 29
-17 11 0 20 -4 20 -9 0 -4 -11 -6 -25 -3 -14 2 -25 0 -25 -6 0 -5 -6 -12 -14
-15 -10 -4 -12 1 -9 16 4 18 3 19 -6 7 -6 -8 -11 -11 -11 -7 0 4 -9 3 -19 -3
-21 -11 -51 -4 -51 11 0 5 10 7 23 4 16 -4 28 0 38 12 13 16 12 17 -3 4 -10
-7 -25 -11 -33 -7 -19 7 -47 -3 -40 -14 7 -12 -61 -43 -77 -37 -9 4 -8 6 3 6
9 1 22 7 29 15 6 8 18 12 26 9 8 -3 14 0 12 6 -5 17 54 48 90 46 21 0 38 -7
43 -18z m298 9 c-2 -2 -29 -14 -59 -26 -30 -12 -51 -18 -47 -13 5 4 27 16 50
25 41 16 65 22 56 14z m-695 -32 c5 -14 4 -15 -9 -4 -17 14 -19 20 -6 20 5 0
12 -7 15 -16z m1396 -104 c0 -3 -9 9 -19 26 -18 30 -25 56 -22 79 2 9 41 -92
41 -105z m-1435 90 c3 -5 1 -10 -4 -10 -6 0 -11 5 -11 10 0 6 2 10 4 10 3 0 8
-4 11 -10z m-38 -22 c-3 -8 -6 -5 -6 6 -1 11 2 17 5 13 3 -3 4 -12 1 -19z
m368 1 c-10 -15 18 -10 43 7 12 8 22 11 22 5 0 -13 -29 -41 -42 -41 -6 0 -19
-7 -28 -15 -13 -12 -23 -13 -41 -6 -13 5 -18 10 -11 10 7 1 10 6 6 12 -4 7 4
20 17 30 23 17 45 16 34 -2z m-321 -22 c-1 -9 9 -28 22 -42 28 -30 13 -34 -17
-4 -11 11 -18 27 -15 35 3 8 1 14 -4 14 -6 0 -10 5 -10 11 0 6 6 9 13 6 6 -2
11 -11 11 -20z m652 -6 c-20 -22 -54 -33 -62 -20 -3 5 7 9 21 9 14 0 24 4 21
9 -4 5 0 12 6 14 26 11 31 6 14 -12z m909 -101 c5 -17 4 -22 -3 -15 -5 6 -13
21 -17 35 -5 17 -4 22 3 15 5 -5 13 -21 17 -35z m-30 -111 c-3 -4 0 -9 5 -11
6 -2 12 -17 13 -33 1 -17 6 -33 11 -37 5 -3 2 -13 -7 -22 -11 -11 -18 -13 -23
-5 -4 8 -9 7 -16 -2 -7 -11 -8 -9 -6 6 3 30 -11 77 -22 70 -6 -3 -10 -2 -10 4
0 5 9 13 20 16 22 7 26 20 10 30 -5 3 -10 14 -9 23 0 14 2 13 9 -3 7 -16 9
-12 10 20 l2 40 9 -44 c5 -24 6 -47 4 -52z m45 72 c0 -6 -4 -13 -10 -16 -5 -3
-10 1 -10 9 0 9 5 16 10 16 6 0 10 -4 10 -9z m131 -23 c12 -22 11 -22 -8 -5
-11 9 -23 14 -26 10 -4 -3 -7 -1 -7 5 0 21 29 13 41 -10z m-1031 -48 c-8 -5
-19 -10 -25 -10 -5 0 -3 5 5 10 8 5 20 10 25 10 6 0 3 -5 -5 -10z m-347 -118
c2 -31 0 -49 -5 -44 -10 10 -17 81 -10 101 7 19 9 10 15 -57z m-74 8 c0 -10
-3 -8 -9 5 -12 27 -12 43 0 25 5 -8 9 -22 9 -30z m1481 -40 c0 -12 -28 -20
-45 -14 -22 9 -8 23 17 16 16 -4 19 -2 13 8 -5 9 -4 11 3 6 7 -4 12 -11 12
-16z m-920 -195 c0 -5 -5 -3 -10 5 -5 8 -10 20 -10 25 0 6 5 3 10 -5 5 -8 10
-19 10 -25z m397 5 c20 -25 21 -29 6 -34 -9 -4 -19 -3 -22 0 -3 4 0 9 6 11 10
4 9 8 -1 19 -21 20 -47 18 -39 -3 5 -15 4 -16 -8 -5 -12 11 -11 15 5 28 26 18
27 18 53 -16z m-24 -25 c-8 -22 -22 -18 -16 5 3 11 9 17 14 15 4 -3 6 -12 2
-20z"/>
<path d="M3486 2395 c-4 -10 1 -15 16 -15 17 0 18 2 8 15 -7 8 -14 15 -15 15
-2 0 -5 -7 -9 -15z"/>
<path d="M3550 2401 c0 -6 0 -14 1 -17 0 -4 -5 -11 -13 -16 -8 -5 -2 -6 17 -2
39 9 55 23 18 17 -20 -3 -24 -2 -14 5 9 7 10 12 2 16 -6 4 -11 2 -11 -3z"/>
<path d="M3500 2355 c0 -8 2 -15 4 -15 2 0 6 7 10 15 3 8 1 15 -4 15 -6 0 -10
-7 -10 -15z"/>
<path d="M3640 2336 c0 -2 8 -10 18 -17 15 -13 16 -12 3 4 -13 16 -21 21 -21
13z"/>
<path d="M3644 2275 c11 -8 29 -14 40 -14 20 1 21 1 1 6 -11 3 -24 9 -29 14
-6 5 -15 9 -20 9 -6 0 -2 -7 8 -15z"/>
<path d="M3555 2265 c17 -8 39 -14 50 -14 11 0 2 6 -20 14 -50 18 -70 18 -30
0z"/>
<path d="M3740 2251 c18 -6 21 -10 10 -14 -8 -3 -22 -8 -30 -11 -8 -3 -1 -4
15 -3 37 3 42 31 5 34 l-25 2 25 -8z"/>
<path d="M3665 2240 c27 -12 43 -12 25 0 -8 5 -22 9 -30 9 -10 0 -8 -3 5 -9z"/>
<path d="M3818 2052 c-3 -9 -2 -26 2 -37 6 -15 8 -10 8 18 0 40 -3 47 -10 19z"/>
<path d="M3793 2005 c-1 -26 2 -34 8 -24 7 12 9 12 9 0 0 -8 2 -12 6 -9 3 3
-1 21 -8 39 l-14 33 -1 -39z"/>
<path d="M3782 1900 c0 -14 2 -19 5 -12 2 6 2 18 0 25 -3 6 -5 1 -5 -13z"/>
<path d="M3680 1819 c0 -5 9 -9 20 -9 11 0 20 4 20 8 0 4 -9 8 -20 9 -11 1
-20 -2 -20 -8z"/>
<path d="M3298 2313 c7 -3 16 -2 19 1 4 3 -2 6 -13 5 -11 0 -14 -3 -6 -6z"/>
<path d="M3233 2303 c-7 -2 -13 -9 -13 -14 0 -4 6 -6 14 -3 8 3 17 1 21 -5 3
-6 13 -11 21 -11 8 0 12 5 9 10 -4 6 -11 8 -16 5 -5 -4 -9 1 -9 9 0 16 -6 18
-27 9z"/>
<path d="M3318 2293 c7 -3 16 -2 19 1 4 3 -2 6 -13 5 -11 0 -14 -3 -6 -6z"/>
<path d="M3230 2259 c0 -5 5 -7 10 -4 6 3 10 8 10 11 0 2 -4 4 -10 4 -5 0 -10
-5 -10 -11z"/>
<path d="M3270 2250 c-8 -5 -11 -12 -8 -16 4 -3 14 1 23 10 18 17 9 21 -15 6z"/>
<path d="M3440 2243 c0 -6 5 -15 10 -18 6 -3 10 -11 10 -16 0 -6 -4 -8 -9 -4
-5 3 -12 1 -16 -4 -3 -6 3 -8 15 -6 11 2 20 -1 20 -6 0 -15 -21 -53 -34 -61
-8 -6 -8 -8 1 -8 6 0 13 -6 16 -12 2 -7 3 -5 2 4 -2 10 1 21 6 24 5 3 9 -3 9
-13 1 -17 1 -17 15 0 13 18 14 18 18 0 3 -15 4 -15 3 2 -1 13 -7 19 -18 17
-11 -2 -18 3 -18 13 0 9 4 14 9 11 4 -3 6 5 4 17 -5 26 -42 78 -43 60z"/>
<path d="M3410 2160 c0 -11 2 -20 4 -20 2 0 6 9 9 20 3 11 1 20 -4 20 -5 0 -9
-9 -9 -20z"/>
<path d="M3170 2160 c0 -6 7 -10 15 -10 8 0 15 2 15 4 0 2 -7 6 -15 10 -8 3
-15 1 -15 -4z"/>
<path d="M3140 2135 c-14 -16 -3 -20 19 -6 8 5 9 11 3 15 -5 3 -15 -1 -22 -9z"/>
<path d="M3373 2083 c-7 -2 -13 -14 -12 -26 0 -15 2 -17 6 -7 4 8 13 20 22 27
16 12 7 16 -16 6z"/>
<path d="M3405 2060 c-3 -5 -1 -10 4 -10 6 0 11 5 11 10 0 6 -2 10 -4 10 -3 0
-8 -4 -11 -10z"/>
<path d="M3456 2043 c-6 -14 -5 -15 5 -6 7 7 10 15 7 18 -3 3 -9 -2 -12 -12z"/>
<path d="M3322 1995 c-11 -13 -9 -19 11 -39 l25 -24 -3 31 c-2 18 -3 35 -4 40
-2 11 -15 8 -29 -8z m28 -15 c0 -5 -4 -10 -10 -10 -5 0 -10 5 -10 10 0 6 5 10
10 10 6 0 10 -4 10 -10z"/>
<path d="M3396 1951 c8 -8 43 -8 38 0 -2 4 -13 7 -24 6 -10 -1 -17 -3 -14 -6z"/>
<path d="M3376 1936 c3 -8 13 -17 22 -21 13 -5 13 -2 -3 15 -21 24 -26 25 -19
6z"/>
<path d="M3255 2140 c3 -5 8 -10 11 -10 2 0 4 5 4 10 0 6 -5 10 -11 10 -5 0
-7 -4 -4 -10z"/>
<path d="M3265 2110 c3 -5 8 -10 11 -10 2 0 4 5 4 10 0 6 -5 10 -11 10 -5 0
-7 -4 -4 -10z"/>
<path d="M3200 2090 c-8 -5 -11 -12 -7 -16 4 -4 13 -2 19 4 15 15 7 24 -12 12z"/>
<path d="M3081 2061 c-10 -6 -8 -10 5 -15 10 -4 23 -1 31 7 11 10 10 13 -5 14
-10 1 -24 -2 -31 -6z"/>
<path d="M3247 1988 c-10 -22 -16 -42 -14 -44 2 -2 12 14 22 36 10 22 16 42
14 45 -3 2 -13 -14 -22 -37z"/>
<path d="M3204 1956 c-8 -20 11 -53 20 -37 4 6 2 11 -5 11 -6 0 -9 8 -6 20 6
23 -1 27 -9 6z"/>
<path d="M3476 1918 c-20 -23 -9 -42 18 -32 12 5 14 10 6 19 -8 9 -7 14 2 17
7 3 8 7 2 11 -6 3 -18 -3 -28 -15z m14 -18 c0 -5 -5 -10 -11 -10 -5 0 -7 5 -4
10 3 6 8 10 11 10 2 0 4 -4 4 -10z"/>
<path d="M3550 1890 c20 -13 33 -13 25 0 -3 6 -14 10 -23 10 -15 0 -15 -2 -2
-10z"/>
<path d="M2943 1832 c-10 -16 -7 -21 20 -36 l32 -17 -23 19 c-13 12 -20 26
-16 36 8 22 1 20 -13 -2z"/>
<path d="M3390 1840 c-21 -13 -5 -24 18 -11 11 6 22 7 26 4 3 -3 6 -1 6 5 0
14 -29 15 -50 2z"/>
<path d="M3036 1776 c6 -17 5 -17 -17 -6 l-24 12 22 -23 c18 -18 25 -21 35
-11 10 10 8 16 -5 30 -17 16 -18 16 -11 -2z"/>
<path d="M3386 1781 c-4 -5 3 -7 14 -4 23 6 26 13 6 13 -8 0 -17 -4 -20 -9z"/>
<path d="M3436 1774 c-6 -16 2 -18 22 -5 11 7 11 9 -1 14 -9 3 -18 -1 -21 -9z"/>
<path d="M3682 1744 c10 -10 20 -15 24 -12 3 4 -5 12 -18 18 -22 12 -22 12 -6
-6z"/>
<path d="M3665 1720 c-3 -5 -1 -10 4 -10 6 0 11 5 11 10 0 6 -2 10 -4 10 -3 0
-8 -4 -11 -10z"/>
<path d="M3072 1709 c6 -4 27 -5 46 -2 23 4 37 2 42 -8 5 -7 12 -10 17 -6 14
14 -21 27 -69 25 -26 -1 -42 -5 -36 -9z"/>
<path d="M3203 1705 c-7 -8 -13 -20 -13 -27 1 -9 5 -7 14 4 7 10 24 22 37 27
l24 10 -25 0 c-14 0 -31 -6 -37 -14z"/>
<path d="M3265 1700 c-3 -5 -1 -10 4 -10 6 0 11 5 11 10 0 6 -2 10 -4 10 -3 0
-8 -4 -11 -10z"/>
<path d="M3110 1690 c0 -6 7 -10 15 -10 8 0 15 2 15 4 0 2 -7 6 -15 10 -8 3
-15 1 -15 -4z"/>
<path d="M3715 1653 c2 -16 7 -37 11 -47 7 -18 8 -18 16 3 5 15 3 30 -8 47
-21 31 -24 30 -19 -3z m25 -23 c0 -5 -2 -10 -4 -10 -3 0 -8 5 -11 10 -3 6 -1
10 4 10 6 0 11 -4 11 -10z"/>
<path d="M3151 1654 c0 -11 3 -14 6 -6 3 7 2 16 -1 19 -3 4 -6 -2 -5 -13z"/>
<path d="M3564 1654 c-18 -14 -18 -15 4 -4 12 6 22 13 22 15 0 8 -5 6 -26 -11z"/>
<path d="M3560 1630 c-8 -5 -12 -11 -9 -14 2 -3 11 -1 19 4 8 5 12 11 9 14 -2
3 -11 1 -19 -4z"/>
<path d="M3410 1610 c-8 -5 -10 -10 -5 -10 6 0 17 5 25 10 8 5 11 10 5 10 -5
0 -17 -5 -25 -10z"/>
<path d="M3750 1585 c-7 -9 -10 -18 -6 -22 3 -3 6 -1 6 6 0 7 5 9 10 6 6 -3
10 1 10 9 0 20 -4 20 -20 1z"/>
<path d="M3524 1578 c-4 -7 -4 -10 1 -6 4 4 14 3 22 -4 7 -6 16 -8 19 -5 3 3
-3 10 -15 16 -15 8 -22 8 -27 -1z"/>
<path d="M3378 1573 c7 -3 16 -2 19 1 4 3 -2 6 -13 5 -11 0 -14 -3 -6 -6z"/>
<path d="M3513 1554 c4 -4 0 -16 -10 -26 -20 -22 -1 -24 21 -2 20 19 20 20 -1
28 -10 4 -14 4 -10 0z"/>
<path d="M3258 1543 c7 -3 16 -2 19 1 4 3 -2 6 -13 5 -11 0 -14 -3 -6 -6z"/>
<path d="M3440 1531 c0 -10 19 -25 25 -20 1 2 -3 10 -11 17 -8 7 -14 8 -14 3z"/>
<path d="M3258 1513 c7 -3 16 -2 19 1 4 3 -2 6 -13 5 -11 0 -14 -3 -6 -6z"/>
<path d="M3787 1501 c-4 -17 -3 -21 5 -13 5 5 8 16 6 23 -3 8 -7 3 -11 -10z"/>
<path d="M3140 1500 c-13 -8 -12 -10 3 -10 9 0 17 5 17 10 0 12 -1 12 -20 0z"/>
<path d="M3100 1489 c0 -5 5 -7 10 -4 6 3 10 8 10 11 0 2 -4 4 -10 4 -5 0 -10
-5 -10 -11z"/>
<path d="M3440 1490 c0 -5 5 -10 11 -10 5 0 7 5 4 10 -3 6 -8 10 -11 10 -2 0
-4 -4 -4 -10z"/>
<path d="M3357 1465 c3 -8 9 -12 14 -9 12 7 11 11 -5 17 -10 4 -13 1 -9 -8z"/>
<path d="M3398 1473 c7 -3 16 -2 19 1 4 3 -2 6 -13 5 -11 0 -14 -3 -6 -6z"/>
<path d="M3290 1450 c0 -5 5 -10 10 -10 6 0 10 5 10 10 0 6 -4 10 -10 10 -5 0
-10 -4 -10 -10z"/>
<path d="M3380 1445 c-14 -8 -20 -14 -15 -14 6 0 21 6 35 14 14 8 21 14 15 14
-5 0 -21 -6 -35 -14z"/>
<path d="M3020 1437 c0 -9 -9 -21 -21 -27 -11 -7 -19 -14 -16 -16 2 -2 15 1
28 8 24 13 31 30 17 44 -5 4 -8 0 -8 -9z"/>
<path d="M3330 1440 c0 -5 5 -10 10 -10 6 0 10 5 10 10 0 6 -4 10 -10 10 -5 0
-10 -4 -10 -10z"/>
<path d="M3038 1393 c7 -3 16 -2 19 1 4 3 -2 6 -13 5 -11 0 -14 -3 -6 -6z"/>
<path d="M3185 1380 c16 -7 11 -9 -22 -9 -23 -1 -45 -6 -49 -12 -4 -7 0 -9 12
-6 11 3 42 9 69 13 43 6 46 8 25 15 -35 10 -60 10 -35 -1z"/>
<path d="M3068 1368 c9 -9 15 -9 24 0 9 9 7 12 -12 12 -19 0 -21 -3 -12 -12z"/>
<path d="M3820 1340 c0 -5 5 -10 10 -10 6 0 10 5 10 10 0 6 -4 10 -10 10 -5 0
-10 -4 -10 -10z"/>
<path d="M2923 1245 c0 -8 4 -12 9 -9 5 3 6 10 3 15 -9 13 -12 11 -12 -6z"/>
<path d="M2756 1107 c3 -10 9 -15 12 -12 3 3 0 11 -7 18 -10 9 -11 8 -5 -6z"/>
<path d="M2780 1984 c0 -6 7 -19 15 -30 8 -10 14 -14 14 -9 0 6 -6 19 -14 29
-8 11 -15 15 -15 10z"/>
<path d="M2786 1917 c3 -10 9 -15 12 -12 3 3 0 11 -7 18 -10 9 -11 8 -5 -6z"/>
<path d="M2811 1844 c0 -11 3 -14 6 -6 3 7 2 16 -1 19 -3 4 -6 -2 -5 -13z"/>
<path d="M2860 1802 c0 -5 7 -9 15 -9 8 0 12 4 9 9 -3 4 -9 8 -15 8 -5 0 -9
-4 -9 -8z"/>
<path d="M2920 1760 c0 -5 5 -10 11 -10 5 0 7 5 4 10 -3 6 -8 10 -11 10 -2 0
-4 -4 -4 -10z"/>
<path d="M2916 1715 c4 -8 11 -15 16 -15 6 0 5 6 -2 15 -7 8 -14 15 -16 15 -2
0 -1 -7 2 -15z"/>
<path d="M2830 1705 c0 -9 7 -18 15 -22 23 -8 24 0 3 20 -15 14 -18 15 -18 2z"/>
<path d="M2810 1677 c0 -4 9 -16 20 -27 11 -11 20 -16 20 -12 0 5 -9 17 -20
27 -11 10 -20 15 -20 12z"/>
<path d="M2887 1623 c-4 -3 -7 -11 -7 -17 0 -6 5 -5 12 2 6 6 9 14 7 17 -3 3
-9 2 -12 -2z"/>
<path d="M2960 1602 c0 -5 7 -9 15 -9 8 0 15 4 15 9 0 4 -7 8 -15 8 -8 0 -15
-4 -15 -8z"/>
<path d="M2852 1553 c-13 -14 -20 -28 -17 -31 4 -4 13 1 20 11 10 13 14 15 18
5 2 -7 4 -1 4 15 0 15 0 27 -1 26 0 -1 -11 -12 -24 -26z"/>
<path d="M2970 1694 c0 -15 27 -37 32 -26 2 6 13 6 28 0 23 -9 24 -10 8 -22
-10 -7 -15 -16 -12 -19 4 -3 14 1 22 10 15 14 14 18 -13 39 -22 17 -31 20 -37
11 -6 -9 -10 -8 -18 3 -5 8 -10 10 -10 4z"/>
<path d="M2595 1560 c-8 -13 5 -13 25 0 13 8 13 10 -2 10 -9 0 -20 -4 -23 -10z"/>
<path d="M2680 1529 c0 -5 5 -7 10 -4 6 3 10 8 10 11 0 2 -4 4 -10 4 -5 0 -10
-5 -10 -11z"/>
<path d="M2625 1450 c3 -5 11 -10 16 -10 6 0 7 5 4 10 -3 6 -11 10 -16 10 -6
0 -7 -4 -4 -10z"/>
<path d="M3835 1200 c3 -5 8 -10 11 -10 2 0 4 5 4 10 0 6 -5 10 -11 10 -5 0
-7 -4 -4 -10z"/>
<path d="M3860 1161 c0 -11 4 -22 9 -25 5 -3 8 5 7 19 -1 29 -16 34 -16 6z"/>
<path d="M887 2479 c7 -7 15 -10 18 -7 3 3 -2 9 -12 12 -14 6 -15 5 -6 -5z"/>
<path d="M3646 2476 c3 -8 12 -12 20 -9 21 8 17 23 -6 23 -13 0 -18 -5 -14
-14z"/>
<path d="M2783 2461 c0 -11 5 -18 9 -15 4 3 5 11 1 19 -7 21 -12 19 -10 -4z"/>
<path d="M3117 2451 c-2 -10 -1 -24 3 -30 4 -7 7 1 8 18 1 35 -3 40 -11 12z"/>
<path d="M3646 2435 c-17 -13 -16 -14 10 -11 16 2 32 -1 36 -8 4 -6 10 -7 15
-3 8 9 -17 28 -28 21 -4 -2 -9 0 -11 5 -1 5 -11 3 -22 -4z"/>
<path d="M3746 2407 c3 -10 9 -15 12 -12 3 3 0 11 -7 18 -10 9 -11 8 -5 -6z"/>
<path d="M3711 2397 c-12 -15 -11 -17 3 -17 10 0 14 -4 11 -10 -3 -5 -2 -10 4
-10 5 0 13 5 16 10 3 6 2 10 -4 10 -5 0 -11 7 -13 17 -3 15 -4 15 -17 0z"/>
<path d="M701 2381 c-8 -14 -7 -22 4 -31 13 -11 15 -8 15 19 0 36 -5 39 -19
12z"/>
<path d="M890 2390 c0 -5 4 -10 9 -10 6 0 13 5 16 10 3 6 -1 10 -9 10 -9 0
-16 -4 -16 -10z"/>
<path d="M880 2359 c0 -5 5 -7 10 -4 6 3 10 8 10 11 0 2 -4 4 -10 4 -5 0 -10
-5 -10 -11z"/>
<path d="M3050 2348 c0 -20 18 -43 27 -35 4 5 1 12 -6 16 -7 5 -10 14 -7 20 4
6 2 11 -3 11 -6 0 -11 -6 -11 -12z"/>
<path d="M670 2320 c0 -5 5 -10 10 -10 6 0 10 5 10 10 0 6 -4 10 -10 10 -5 0
-10 -4 -10 -10z"/>
<path d="M1050 2320 c-8 -5 -12 -11 -10 -14 3 -2 14 2 24 10 22 15 10 19 -14
4z"/>
<path d="M1070 2297 c-19 -16 -20 -18 -5 -12 11 5 30 8 43 8 13 -1 22 0 20 1
-2 1 -10 7 -18 13 -12 9 -21 7 -40 -10z"/>
<path d="M2610 2306 c0 -2 7 -7 16 -10 8 -3 12 -2 9 4 -6 10 -25 14 -25 6z"/>
<path d="M920 2270 c0 -5 4 -10 9 -10 6 0 13 5 16 10 3 6 -1 10 -9 10 -9 0
-16 -4 -16 -10z"/>
<path d="M3851 2264 c0 -11 3 -14 6 -6 3 7 2 16 -1 19 -3 4 -6 -2 -5 -13z"/>
<path d="M3876 2244 c-4 -20 -5 -38 -3 -40 3 -3 8 11 11 32 4 20 5 38 3 40 -3
3 -8 -11 -11 -32z"/>
<path d="M1163 2258 c-4 -7 -6 -21 -5 -30 2 -9 -5 -18 -15 -21 -10 -2 -5 -3
11 -1 16 3 27 1 23 -2 -4 -4 -2 -13 4 -21 9 -10 15 -10 25 -2 8 6 11 15 8 20
-3 5 0 9 6 9 6 0 9 4 6 9 -3 5 -15 7 -26 4 -23 -6 -28 15 -8 35 9 9 8 12 -4
12 -9 0 -20 -6 -25 -12z"/>
<path d="M730 2234 c12 -31 12 -37 2 -30 -4 2 -9 -5 -9 -16 l-2 -21 15 21 c10
15 12 27 4 46 -5 14 -12 26 -15 26 -2 0 0 -12 5 -26z"/>
<path d="M2340 2244 c0 -8 5 -12 10 -9 6 3 10 10 10 16 0 5 -4 9 -10 9 -5 0
-10 -7 -10 -16z"/>
<path d="M1210 2243 c8 -3 24 -10 35 -15 20 -9 20 -9 1 6 -11 9 -27 16 -35 15
-14 0 -14 -1 -1 -6z"/>
<path d="M1266 2195 c4 -8 10 -12 15 -9 11 6 2 24 -11 24 -5 0 -7 -7 -4 -15z"/>
<path d="M1002 2175 c-1 -11 5 -33 12 -50 l13 -30 0 33 c0 17 -4 32 -8 32 -4
0 -10 8 -12 18 -4 14 -5 14 -5 -3z"/>
<path d="M2400 2184 c0 -28 52 -46 66 -22 5 8 2 9 -11 4 -11 -4 -25 0 -36 10
-11 10 -19 13 -19 8z"/>
<path d="M2470 2139 c0 -5 9 -9 20 -9 11 0 20 2 20 4 0 2 -9 6 -20 9 -11 3
-20 1 -20 -4z"/>
<path d="M3901 2134 c0 -11 3 -14 6 -6 3 7 2 16 -1 19 -3 4 -6 -2 -5 -13z"/>
<path d="M1315 2130 c-3 -5 -1 -10 5 -10 7 0 8 -6 0 -19 -19 -36 -4 -45 18
-11 10 17 10 23 -2 35 -9 10 -17 11 -21 5z"/>
<path d="M2720 2100 c0 -5 5 -10 11 -10 5 0 7 5 4 10 -3 6 -8 10 -11 10 -2 0
-4 -4 -4 -10z"/>
<path d="M3901 2084 c0 -11 3 -14 6 -6 3 7 2 16 -1 19 -3 4 -6 -2 -5 -13z"/>
<path d="M2745 2080 c-3 -5 -2 -10 4 -10 5 0 13 5 16 10 3 6 2 10 -4 10 -5 0
-13 -4 -16 -10z"/>
<path d="M720 2019 c0 -5 11 -9 25 -9 14 0 25 2 25 4 0 2 -11 6 -25 8 -14 3
-25 1 -25 -3z"/>
<path d="M1365 2020 c3 -5 10 -10 16 -10 5 0 9 5 9 10 0 6 -7 10 -16 10 -8 0
-12 -4 -9 -10z"/>
<path d="M720 1988 c0 -5 6 -8 13 -8 7 0 8 -3 2 -8 -5 -4 -11 -18 -13 -32 -2
-14 -10 -36 -19 -49 -11 -18 -12 -22 -2 -19 8 3 19 24 26 48 7 24 19 50 27 59
13 14 12 16 -10 16 -13 0 -24 -3 -24 -7z"/>
<path d="M2240 1979 c0 -5 5 -7 10 -4 6 3 10 8 10 11 0 2 -4 4 -10 4 -5 0 -10
-5 -10 -11z"/>
<path d="M1031 1964 c0 -11 3 -14 6 -6 3 7 2 16 -1 19 -3 4 -6 -2 -5 -13z"/>
<path d="M1490 1960 c0 -5 5 -10 11 -10 5 0 7 5 4 10 -3 6 -8 10 -11 10 -2 0
-4 -4 -4 -10z"/>
<path d="M683 1941 c-14 -23 -5 -35 14 -20 14 12 18 39 5 39 -4 0 -13 -9 -19
-19z"/>
<path d="M971 1931 c-31 -30 -40 -51 -21 -51 6 0 9 4 8 10 -2 5 11 20 27 34
17 13 27 27 24 31 -4 3 -21 -7 -38 -24z"/>
<path d="M2214 1938 c-17 -19 -17 -21 -2 -15 11 4 21 0 27 -11 5 -9 13 -13 17
-9 4 4 -1 14 -12 22 -16 13 -17 16 -4 25 8 5 10 10 4 10 -6 0 -19 -10 -30 -22z"/>
<path d="M1476 1931 c-3 -5 8 -11 24 -13 24 -4 27 -2 19 9 -13 15 -35 17 -43
4z"/>
<path d="M998 1912 c-16 -9 -28 -20 -28 -24 0 -13 10 -9 38 17 31 29 28 31
-10 7z"/>
<path d="M3871 1923 c0 -6 -4 -20 -7 -30 -5 -14 -4 -15 5 -7 7 7 11 20 8 30
-3 11 -5 14 -6 7z"/>
<path d="M3902 1910 c0 -14 2 -19 5 -12 2 6 2 18 0 25 -3 6 -5 1 -5 -13z"/>
<path d="M1022 1894 c-7 -8 -8 -14 -3 -14 10 0 25 19 20 25 -2 1 -10 -3 -17
-11z"/>
<path d="M2193 1894 c0 -6 10 -11 22 -10 13 0 20 6 18 13 -6 15 -40 13 -40 -3z"/>
<path d="M1937 1832 c-23 -25 -22 -28 11 -26 57 3 57 3 34 24 -26 24 -25 24
-45 2z m33 -12 c0 -5 -4 -10 -10 -10 -5 0 -10 5 -10 10 0 6 5 10 10 10 6 0 10
-4 10 -10z"/>
<path d="M2002 1836 c10 -7 14 -16 10 -20 -4 -4 7 -4 23 0 38 9 44 14 17 14
-11 0 -24 5 -27 10 -3 6 -14 10 -23 10 -16 -1 -16 -2 0 -14z"/>
<path d="M2090 1840 c-18 -11 -11 -18 29 -30 19 -5 29 -5 26 1 -4 5 -15 9 -26
9 -26 0 -24 18 4 23 19 4 19 4 2 5 -11 1 -27 -2 -35 -8z"/>
<path d="M725 1830 c-3 -5 1 -10 10 -10 9 0 13 5 10 10 -3 6 -8 10 -10 10 -2
0 -7 -4 -10 -10z"/>
<path d="M1363 1754 c0 -14 2 -21 6 -17 3 4 9 10 12 13 4 3 1 10 -6 17 -10 9
-12 6 -12 -13z"/>
<path d="M1715 1760 c-3 -5 -2 -10 4 -10 5 0 13 5 16 10 3 6 2 10 -4 10 -5 0
-13 -4 -16 -10z"/>
<path d="M1745 1749 c-4 -5 -19 -7 -34 -4 -19 4 -28 2 -28 -7 0 -9 15 -13 44
-14 24 0 38 3 32 7 -8 4 3 10 27 14 60 10 63 13 12 14 -26 1 -50 -4 -53 -10z"/>
<path d="M1808 1733 c6 -2 18 -2 25 0 6 3 1 5 -13 5 -14 0 -19 -2 -12 -5z"/>
<path d="M2675 1718 c-11 -6 -21 -12 -23 -13 -7 -6 11 -34 19 -29 5 3 7 10 3
15 -3 6 2 17 12 24 23 17 17 19 -11 3z"/>
<path d="M1650 1710 c0 -5 7 -10 16 -10 8 0 12 5 9 10 -3 6 -10 10 -16 10 -5
0 -9 -4 -9 -10z"/>
<path d="M2704 1704 c-18 -14 -18 -15 4 -4 12 6 22 13 22 15 0 8 -5 6 -26 -11z"/>
<path d="M1590 1675 c-7 -8 -8 -15 -2 -15 5 0 15 7 22 15 7 8 8 15 2 15 -5 0
-15 -7 -22 -15z"/>
<path d="M1248 1645 c-4 -20 -2 -23 8 -14 7 6 10 17 7 25 -7 20 -10 18 -15
-11z"/>
<path d="M1610 1655 c-7 -8 -16 -12 -21 -9 -5 3 -9 0 -9 -6 0 -6 -5 -8 -12 -4
-8 5 -9 2 -5 -10 4 -10 7 -20 7 -22 0 -2 6 -4 14 -4 8 0 16 10 18 23 2 17 9
22 30 22 21 -1 24 2 16 12 -14 17 -23 16 -38 -2z"/>
<path d="M1135 1624 c9 -9 19 -13 23 -10 3 4 0 11 -8 16 -24 15 -33 11 -15 -6z"/>
<path d="M2268 1633 c-20 -5 -24 -23 -5 -23 6 0 21 7 31 15 20 15 11 18 -26 8z"/>
<path d="M2355 1630 c-19 -8 -19 -9 3 -9 12 -1 22 4 22 9 0 6 -1 10 -2 9 -2 0
-12 -4 -23 -9z"/>
<path d="M2505 1630 c3 -5 11 -10 16 -10 6 0 7 5 4 10 -3 6 -11 10 -16 10 -6
0 -7 -4 -4 -10z"/>
<path d="M2480 1621 c0 -6 4 -13 10 -16 6 -3 7 1 4 9 -7 18 -14 21 -14 7z"/>
<path d="M1504 1608 c-12 -19 -12 -49 -1 -45 5 1 11 15 13 30 3 29 -1 34 -12
15z"/>
<path d="M2295 1603 c-40 -21 -37 -17 -45 -67 -5 -35 -4 -43 7 -39 10 4 12 14
9 30 -8 30 9 63 34 63 10 0 22 5 25 11 11 17 2 18 -30 2z"/>
<path d="M2390 1605 c0 -11 -7 -14 -27 -10 -16 3 -21 2 -13 -2 22 -9 37 -26
44 -51 7 -20 9 -21 31 -6 14 9 30 14 37 11 7 -2 31 11 52 29 21 18 43 31 49
27 6 -3 7 -1 3 5 -8 13 -56 -5 -56 -21 0 -5 -6 -7 -14 -4 -8 3 -13 -1 -12 -10
1 -10 -8 -17 -24 -18 -14 -1 -34 -6 -44 -10 -13 -6 -17 -5 -12 3 3 6 2 13 -4
17 -5 3 -7 17 -4 31 3 13 3 24 0 24 -3 0 -6 -7 -6 -15z"/>
<path d="M1150 1580 c0 -5 5 -10 10 -10 6 0 10 5 10 10 0 6 -4 10 -10 10 -5 0
-10 -4 -10 -10z"/>
<path d="M3661 1581 c-8 -5 -9 -11 -3 -15 5 -3 12 1 16 9 6 17 6 18 -13 6z"/>
<path d="M1460 1569 c0 -5 5 -7 10 -4 6 3 10 8 10 11 0 2 -4 4 -10 4 -5 0 -10
-5 -10 -11z"/>
<path d="M1049 1558 c-7 -16 -4 -75 3 -79 15 -9 71 50 64 67 -6 16 -15 17 -36
4 -8 -5 -11 -12 -7 -17 5 -4 12 -1 17 7 5 8 12 11 16 7 4 -3 1 -13 -5 -21 -10
-12 -16 -13 -32 -3 -11 7 -17 18 -14 24 3 10 -2 20 -6 11z m21 -58 c0 -5 -4
-10 -10 -10 -5 0 -10 5 -10 10 0 6 5 10 10 10 6 0 10 -4 10 -10z"/>
<path d="M1140 1550 c-8 -5 -10 -10 -5 -10 6 0 17 5 25 10 8 5 11 10 5 10 -5
0 -17 -5 -25 -10z"/>
<path d="M1279 1470 c-36 -39 -42 -50 -28 -50 11 0 19 4 19 8 0 12 52 72 62
72 5 0 6 -4 3 -10 -3 -5 -1 -10 4 -10 13 0 13 3 5 24 -9 23 -14 20 -65 -34z"/>
<path d="M3630 1495 c-11 -13 -10 -14 4 -9 9 3 16 10 16 15 0 13 -6 11 -20 -6z"/>
<path d="M988 1473 c6 -2 18 -2 25 0 6 3 1 5 -13 5 -14 0 -19 -2 -12 -5z"/>
<path d="M3550 1460 c0 -5 5 -10 10 -10 6 0 10 5 10 10 0 6 -4 10 -10 10 -5 0
-10 -4 -10 -10z"/>
<path d="M970 1450 c-8 -5 -12 -11 -9 -14 3 -3 14 1 25 9 21 16 8 20 -16 5z"/>
<path d="M2240 1451 c0 -6 5 -13 10 -16 6 -3 10 1 10 9 0 9 -4 16 -10 16 -5 0
-10 -4 -10 -9z"/>
<path d="M3490 1442 c-83 -51 -89 -57 -78 -69 6 -7 16 -13 22 -13 6 0 5 4 -3
9 -12 8 -12 12 2 25 17 17 32 22 23 7 -9 -14 19 -32 38 -25 14 6 14 9 -6 27
-20 18 -21 19 -3 12 38 -16 100 -7 82 12 -4 4 -13 1 -19 -5 -7 -7 -19 -12 -27
-12 -13 1 -13 3 2 14 28 22 -1 38 -33 18z m25 -11 c-3 -6 -11 -11 -17 -11 -6
0 -6 6 2 15 14 17 26 13 15 -4z"/>
<path d="M956 1400 c-16 -17 -25 -30 -20 -30 11 1 35 19 53 43 22 28 -2 19
-33 -13z"/>
<path d="M597 1389 c8 -8 16 -8 30 0 16 9 14 10 -11 11 -22 0 -27 -3 -19 -11z"/>
<path d="M4001 1384 c0 -11 3 -14 6 -6 3 7 2 16 -1 19 -3 4 -6 -2 -5 -13z"/>
<path d="M1156 1365 c-11 -8 -15 -15 -10 -15 6 0 19 7 30 15 10 8 15 14 9 14
-5 0 -19 -6 -29 -14z"/>
<path d="M2864 1369 c-8 -14 28 -18 41 -5 12 12 11 14 -11 12 -14 0 -28 -4
-30 -7z"/>
<path d="M2241 1360 c0 -8 4 -22 9 -30 12 -18 12 -2 0 25 -6 13 -9 15 -9 5z"/>
<path d="M2424 1355 c-10 -8 -14 -14 -9 -14 6 0 19 6 29 14 11 8 15 15 10 15
-6 0 -19 -7 -30 -15z"/>
<path d="M3350 1363 c0 -5 15 -9 33 -10 26 -1 28 0 12 7 -26 11 -45 12 -45 3z"/>
<path d="M625 1350 c-3 -5 -1 -10 4 -10 6 0 11 5 11 10 0 6 -2 10 -4 10 -3 0
-8 -4 -11 -10z"/>
<path d="M2454 1339 c-19 -22 -19 -22 4 -8 12 8 22 17 22 21 0 12 -6 9 -26
-13z"/>
<path d="M3681 1344 c0 -11 3 -14 6 -6 3 7 2 16 -1 19 -3 4 -6 -2 -5 -13z"/>
<path d="M3750 1344 c0 -8 5 -12 10 -9 6 3 10 10 10 16 0 5 -4 9 -10 9 -5 0
-10 -7 -10 -16z"/>
<path d="M517 1330 c-9 -11 -16 -30 -16 -43 1 -20 2 -20 6 -2 3 11 12 25 20
32 8 6 13 17 11 23 -2 6 -11 2 -21 -10z"/>
<path d="M1183 1335 c0 -8 4 -12 9 -9 5 3 6 10 3 15 -9 13 -12 11 -12 -6z"/>
<path d="M2270 1340 c0 -5 5 -10 11 -10 5 0 7 5 4 10 -3 6 -8 10 -11 10 -2 0
-4 -4 -4 -10z"/>
<path d="M2320 1338 c0 -4 3 -8 8 -9 4 0 19 -2 35 -4 15 -2 25 0 22 5 -7 11
-65 19 -65 8z"/>
<path d="M2850 1343 c8 -3 19 -11 23 -17 6 -7 7 -6 4 4 -2 8 -12 16 -23 17
-13 2 -15 1 -4 -4z"/>
<path d="M1140 1330 c0 -5 4 -10 9 -10 6 0 13 5 16 10 3 6 -1 10 -9 10 -9 0
-16 -4 -16 -10z"/>
<path d="M3335 1330 c-13 -5 -14 -9 -5 -9 8 0 24 4 35 9 13 5 14 9 5 9 -8 0
-24 -4 -35 -9z"/>
<path d="M556 1314 c-4 -9 -4 -19 -1 -22 2 -3 7 3 11 12 4 9 4 19 1 22 -2 3
-7 -3 -11 -12z"/>
<path d="M2820 1320 c0 -5 7 -7 15 -4 8 4 15 8 15 10 0 2 -7 4 -15 4 -8 0 -15
-4 -15 -10z"/>
<path d="M2905 1320 c6 -9 -8 -14 -27 -11 -5 0 -8 -3 -8 -9 0 -13 6 -13 31 0
20 11 26 30 8 30 -5 0 -7 -4 -4 -10z"/>
<path d="M1746 1305 c-11 -30 -6 -100 9 -119 13 -17 15 -18 15 -3 0 9 4 17 8
17 9 0 -9 104 -19 115 -4 3 -9 -1 -13 -10z"/>
<path d="M1782 1300 c0 -14 2 -19 5 -12 2 6 2 18 0 25 -3 6 -5 1 -5 -13z"/>
<path d="M1802 1286 c-9 -30 2 -126 13 -126 7 0 25 129 19 144 -10 26 -22 19
-32 -18z"/>
<path d="M1866 1304 c-3 -9 -6 -27 -6 -40 0 -13 -4 -24 -10 -24 -5 0 -10 -9
-10 -21 0 -11 4 -18 9 -15 5 3 12 -2 16 -12 10 -26 21 1 30 71 5 46 4 57 -8
57 -8 0 -18 -7 -21 -16z"/>
<path d="M1913 1285 c0 -22 2 -30 4 -17 2 12 2 30 0 40 -3 9 -5 -1 -4 -23z"/>
<path d="M2695 1310 c-16 -4 -25 -8 -18 -9 6 0 18 -4 26 -7 8 -3 17 2 20 10 4
9 5 15 4 15 -1 -1 -15 -5 -32 -9z"/>
<path d="M4108 1313 c7 -3 16 -2 19 1 4 3 -2 6 -13 5 -11 0 -14 -3 -6 -6z"/>
<path d="M527 1290 c-3 -11 -1 -20 4 -20 5 0 9 9 9 20 0 11 -2 20 -4 20 -2 0
-6 -9 -9 -20z"/>
<path d="M3190 1303 c0 -7 33 -32 42 -33 4 0 5 6 2 14 -5 13 -44 30 -44 19z"/>
<path d="M1682 1270 c0 -14 2 -19 5 -12 2 6 2 18 0 25 -3 6 -5 1 -5 -13z"/>
<path d="M2825 1280 c-3 -5 1 -10 9 -10 9 0 16 5 16 10 0 6 -4 10 -9 10 -6 0
-13 -4 -16 -10z"/>
<path d="M3100 1278 c0 -4 5 -10 10 -13 6 -3 10 -2 10 4 0 5 8 12 18 14 9 3 5
4 -10 4 -16 -1 -28 -5 -28 -9z"/>
<path d="M1710 1255 c0 -14 4 -25 9 -25 4 0 6 11 3 25 -2 14 -6 25 -8 25 -2 0
-4 -11 -4 -25z"/>
<path d="M3130 1261 c0 -6 17 -7 38 -4 51 8 53 13 4 13 -23 0 -42 -4 -42 -9z"/>
<path d="M520 1256 c-3 -3 -3 -44 1 -92 5 -64 11 -89 23 -96 9 -5 16 -20 16
-32 0 -13 6 -26 14 -29 12 -5 12 0 -1 31 -8 20 -19 39 -24 42 -4 3 -12 45 -16
94 -4 48 -10 85 -13 82z"/>
<path d="M1003 1245 c-3 -9 -3 -18 -1 -21 3 -3 8 4 11 16 6 23 -1 27 -10 5z"/>
<path d="M4200 1229 c0 -5 5 -7 10 -4 6 3 10 8 10 11 0 2 -4 4 -10 4 -5 0 -10
-5 -10 -11z"/>
<path d="M3125 1219 c-11 -17 1 -21 15 -4 8 9 8 15 2 15 -6 0 -14 -5 -17 -11z"/>
<path d="M3151 1207 c-13 -21 -12 -21 5 -5 10 10 16 20 13 22 -3 3 -11 -5 -18
-17z"/>
<path d="M1908 1214 c-5 -4 -8 -19 -8 -33 1 -23 2 -24 11 -8 11 19 9 53 -3 41z"/>
<path d="M4221 1193 c-1 -26 3 -31 19 -30 11 1 20 5 20 10 0 5 -6 7 -14 4 -10
-4 -16 3 -19 21 -4 25 -4 25 -6 -5z"/>
<path d="M970 1200 c0 -5 5 -10 10 -10 6 0 10 5 10 10 0 6 -4 10 -10 10 -5 0
-10 -4 -10 -10z"/>
<path d="M1692 1180 c0 -14 2 -19 5 -12 2 6 2 18 0 25 -3 6 -5 1 -5 -13z"/>
<path d="M1720 1188 c0 -9 5 -20 10 -23 13 -8 13 5 0 25 -8 13 -10 13 -10 -2z"/>
<path d="M2924 1161 c-16 -15 -36 -30 -44 -33 -9 -3 -10 -7 -3 -11 6 -4 21 3
35 16 13 12 27 23 31 24 21 5 32 11 19 12 -7 1 -10 6 -7 11 11 18 -2 10 -31
-19z"/>
<path d="M916 1173 c-10 -10 -7 -73 3 -73 5 0 11 12 13 28 2 15 8 26 16 25 18
-4 15 5 -7 16 -10 6 -21 7 -25 4z"/>
<path d="M3058 1163 c6 -2 18 -2 25 0 6 3 1 5 -13 5 -14 0 -19 -2 -12 -5z"/>
<path d="M490 1144 c0 -8 5 -12 10 -9 6 3 10 10 10 16 0 5 -4 9 -10 9 -5 0
-10 -7 -10 -16z"/>
<path d="M2935 1129 c-5 -7 4 -39 10 -39 19 0 55 23 55 34 0 15 -56 20 -65 5z"/>
<path d="M4160 1130 c0 -5 -12 -13 -26 -16 -35 -9 -11 -24 36 -23 l35 2 -35 7
-35 7 33 8 c35 8 44 25 12 25 -11 0 -20 -4 -20 -10z"/>
<path d="M482 1100 c0 -14 2 -19 5 -12 2 6 2 18 0 25 -3 6 -5 1 -5 -13z"/>
<path d="M3040 1106 c0 -13 -5 -16 -22 -10 -19 6 -21 5 -10 -8 11 -14 55 -19
67 -7 3 3 -4 14 -15 24 -19 17 -20 17 -20 1z"/>
<path d="M500 1095 c0 -8 4 -15 10 -15 5 0 7 7 4 15 -4 8 -8 15 -10 15 -2 0
-4 -7 -4 -15z"/>
<path d="M2902 1098 c2 -6 10 -14 16 -16 7 -2 10 2 6 12 -7 18 -28 22 -22 4z"/>
<path d="M3926 1075 c-24 -18 -14 -45 14 -38 14 4 18 9 10 17 -6 9 -6 16 2 24
17 17 -3 14 -26 -3z"/>
<path d="M2602 1055 c0 -16 2 -22 5 -12 2 9 2 23 0 30 -3 6 -5 -1 -5 -18z"/>
<path d="M3968 1063 c7 -3 16 -2 19 1 4 3 -2 6 -13 5 -11 0 -14 -3 -6 -6z"/>
<path d="M490 1050 c-12 -8 -11 -10 8 -10 12 0 22 5 22 10 0 13 -11 13 -30 0z"/>
<path d="M3063 1015 c0 -22 2 -30 4 -17 2 12 2 30 0 40 -3 9 -5 -1 -4 -23z"/>
<path d="M3980 1040 c-8 -5 -12 -12 -9 -15 4 -3 12 1 19 10 14 17 11 19 -10 5z"/>
<path d="M2582 1020 c0 -14 2 -19 5 -12 2 6 2 18 0 25 -3 6 -5 1 -5 -13z"/>
<path d="M2793 1024 c-3 -8 -12 -13 -20 -10 -8 3 -11 2 -8 -3 3 -5 0 -11 -7
-14 -7 -2 -3 -2 9 -1 12 2 23 -2 26 -8 2 -7 3 -5 2 5 -2 9 3 17 10 17 7 0 18
7 25 15 10 13 9 15 -9 15 -12 0 -24 -7 -28 -16z"/>
<path d="M3986 1015 c-11 -8 -16 -15 -10 -15 5 0 18 7 28 15 11 8 16 15 10 15
-5 0 -18 -7 -28 -15z"/>
<path d="M3925 1010 c-4 -6 -11 -7 -17 -4 -7 4 -8 2 -4 -4 5 -9 13 -9 29 -1
31 16 33 19 14 19 -9 0 -19 -5 -22 -10z"/>
<path d="M2640 989 c0 -5 5 -7 10 -4 6 3 10 8 10 11 0 2 -4 4 -10 4 -5 0 -10
-5 -10 -11z"/>
<path d="M580 986 c0 -2 7 -6 15 -10 8 -3 15 -1 15 4 0 6 -7 10 -15 10 -8 0
-15 -2 -15 -4z"/>
<path d="M730 969 c0 -5 14 -9 32 -9 36 0 31 11 -7 15 -14 2 -25 -1 -25 -6z"/>
<path d="M598 963 c-9 -2 -19 -10 -22 -18 -4 -12 0 -12 22 -3 51 22 51 35 0
21z"/>
<path d="M675 960 c11 -5 27 -9 35 -9 13 -1 13 0 0 9 -8 5 -24 9 -35 9 l-20 0
20 -9z"/>
<path d="M2740 960 c0 -5 5 -10 10 -10 6 0 10 5 10 10 0 6 -4 10 -10 10 -5 0
-10 -4 -10 -10z"/>
<path d="M825 950 c-3 -5 -1 -10 4 -10 6 0 11 5 11 10 0 6 -2 10 -4 10 -3 0
-8 -4 -11 -10z"/>
<path d="M630 940 c-11 -8 -7 -9 15 -4 23 4 26 3 15 -5 -18 -13 -1 -15 18 -2
11 7 10 10 -3 15 -22 8 -27 8 -45 -4z"/>
<path d="M3776 934 c-9 -24 -7 -28 9 -14 17 14 20 30 6 30 -5 0 -12 -7 -15
-16z"/>
<path d="M753 933 c9 -2 23 -2 30 0 6 3 -1 5 -18 5 -16 0 -22 -2 -12 -5z"/>
<path d="M3637 863 c-15 -2 -25 -8 -22 -13 3 -5 16 -5 31 0 14 6 37 8 52 5 23
-4 24 -4 7 4 -21 10 -24 10 -68 4z"/>
<path d="M3160 850 c0 -5 5 -10 10 -10 6 0 10 5 10 10 0 6 -4 10 -10 10 -5 0
-10 -4 -10 -10z"/>
<path d="M3485 820 c3 -5 8 -10 11 -10 2 0 4 5 4 10 0 6 -5 10 -11 10 -5 0 -7
-4 -4 -10z"/>
<path d="M3213 813 c9 -2 25 -2 35 0 9 3 1 5 -18 5 -19 0 -27 -2 -17 -5z"/>
<path d="M3450 800 c8 -5 24 -9 35 -9 l20 0 -20 9 c-11 5 -27 9 -35 9 -13 1
-13 0 0 -9z"/>
<path d="M3200 785 c0 -20 38 -28 75 -16 28 9 27 10 -15 8 -31 -1 -44 2 -42
11 1 6 -2 12 -8 12 -5 0 -10 -7 -10 -15z"/>
<path d="M3407 783 c-3 -5 8 -8 25 -9 20 -1 25 2 16 7 -16 11 -35 11 -41 2z"/>
<path d="M3738 773 c7 -3 16 -2 19 1 4 3 -2 6 -13 5 -11 0 -14 -3 -6 -6z"/>
<path d="M1113 304 c-1 -24 3 -44 8 -44 11 0 12 77 1 83 -4 3 -8 -15 -9 -39z"/>
<path d="M1191 334 c0 -11 3 -14 6 -6 3 7 2 16 -1 19 -3 4 -6 -2 -5 -13z"/>
<path d="M1061 303 c-6 -21 -11 -51 -11 -66 0 -16 -4 -26 -10 -22 -6 4 -10 -6
-10 -24 0 -16 4 -32 9 -35 4 -3 6 7 4 22 -3 20 -2 23 5 13 10 -14 47 -8 39 6
-3 5 -1 33 3 63 4 30 5 61 3 68 -9 22 -22 12 -32 -25z"/>
<path d="M1147 316 c-4 -9 -9 -38 -13 -66 -5 -42 -4 -50 9 -50 19 0 41 63 35
100 -4 28 -23 37 -31 16z"/>
<path d="M981 306 c-7 -8 -9 -25 -6 -38 3 -13 1 -36 -4 -51 -13 -32 -4 -37 9
-4 8 19 9 18 10 -13 0 -19 4 -41 9 -49 15 -24 23 23 15 99 -7 71 -12 81 -33
56z"/>
<path d="M1026 284 c-4 -14 -5 -28 -3 -31 3 -2 8 8 11 23 4 14 5 28 3 31 -3 2
-8 -8 -11 -23z"/>
<path d="M1193 240 c0 -25 2 -35 4 -22 2 12 2 32 0 45 -2 12 -4 2 -4 -23z"/>
<path d="M1105 211 c-3 -5 -1 -12 5 -16 5 -3 10 1 10 9 0 18 -6 21 -15 7z"/>
<path d="M970 130 c0 -5 5 -10 11 -10 5 0 7 5 4 10 -3 6 -8 10 -11 10 -2 0 -4
-4 -4 -10z"/>
<path d="M678 33 c23 -2 42 -8 42 -14 0 -5 18 -9 40 -9 22 0 40 5 40 10 0 6
18 10 40 10 22 0 40 -4 40 -10 0 -6 60 -9 163 -8 89 1 143 3 120 5 -24 2 -43
8 -43 14 0 5 -96 8 -242 7 -134 -1 -224 -3 -200 -5z"/>
<path d="M1326 25 c-4 -12 5 -15 57 -13 49 1 53 2 20 5 -24 2 -43 8 -43 14 0
15 -27 10 -34 -6z"/>
<path d="M1558 33 c23 -2 42 -8 42 -14 0 -5 36 -8 83 -7 45 1 63 3 40 5 -24 2
-43 8 -43 14 0 5 -36 8 -82 7 -46 -1 -64 -3 -40 -5z"/>
<path d="M1838 33 c45 -2 82 -8 82 -13 0 -6 64 -9 163 -8 89 1 143 3 120 5
-24 2 -43 8 -43 14 0 5 -81 8 -202 7 -112 -1 -166 -4 -120 -5z"/>
<path d="M2258 33 c12 -2 32 -2 45 0 12 2 2 4 -23 4 -25 0 -35 -2 -22 -4z"/>
<path d="M2400 25 c0 -12 20 -15 120 -15 73 0 120 4 120 10 0 6 18 10 40 10
22 0 40 -4 40 -10 0 -6 33 -9 83 -8 45 1 63 3 40 5 -24 2 -43 8 -43 14 0 5
-81 9 -200 9 -171 0 -200 -2 -200 -15z"/>
<path d="M2898 33 c12 -2 32 -2 45 0 12 2 2 4 -23 4 -25 0 -35 -2 -22 -4z"/>
<path d="M3058 33 c12 -2 32 -2 45 0 12 2 2 4 -23 4 -25 0 -35 -2 -22 -4z"/>
<path d="M3200 31 c0 -6 -19 -12 -42 -14 -24 -2 -6 -4 40 -5 49 -1 82 2 82 8
0 6 18 10 40 10 22 0 40 -4 40 -10 0 -5 18 -10 40 -10 22 0 40 4 40 10 0 5 37
11 83 13 45 1 -9 4 -120 5 -122 1 -203 -2 -203 -7z"/>
<path d="M3680 31 c0 -6 -19 -12 -42 -14 -24 -2 -6 -4 40 -5 46 -1 82 2 82 7
0 6 19 12 43 14 23 2 5 4 -40 5 -47 1 -83 -2 -83 -7z"/>
<path d="M3920 31 c0 -6 -19 -12 -42 -14 -24 -2 -6 -4 40 -5 46 -1 82 2 82 7
0 6 19 12 43 14 23 2 5 4 -40 5 -47 1 -83 -2 -83 -7z"/>
<path d="M4400 25 c0 -12 18 -15 100 -15 82 0 100 3 100 15 0 12 -18 15 -100
15 -82 0 -100 -3 -100 -15z"/>
<path d="M160 10 c0 -5 7 -10 15 -10 8 0 15 5 15 10 0 6 -7 10 -15 10 -8 0
-15 -4 -15 -10z"/>
<path d="M2978 13 c12 -2 32 -2 45 0 12 2 2 4 -23 4 -25 0 -35 -2 -22 -4z"/>
<path d="M4090 14 c37 -8 180 -10 180 -2 0 4 -44 7 -97 7 -54 -1 -91 -3 -83
-5z"/>
</g>
</svg>
